<svg width="26" height="27" viewBox="0 0 26 27" fill="none" xmlns="http://www.w3.org/2000/svg">
<path fill-rule="evenodd" clip-rule="evenodd" d="M6.23919 13.5C6.23919 9.6713 9.18774 6.56757 12.825 6.56757C16.4623 6.56757 19.4108 9.6713 19.4108 13.5C19.4108 17.3287 16.4623 20.4324 12.825 20.4324C9.18774 20.4324 6.23919 17.3287 6.23919 13.5ZM12.825 18C10.464 18 8.55 15.9853 8.55 13.5C8.55 11.0147 10.464 9 12.825 9C15.186 9 17.1 11.0147 17.1 13.5C17.1 15.9853 15.186 18 12.825 18Z" fill="url(#paint0_linear_29_1594)"/>
<path fill-rule="evenodd" clip-rule="evenodd" d="M6.23919 13.5C6.23919 9.6713 9.18774 6.56757 12.825 6.56757C16.4623 6.56757 19.4108 9.6713 19.4108 13.5C19.4108 17.3287 16.4623 20.4324 12.825 20.4324C9.18774 20.4324 6.23919 17.3287 6.23919 13.5ZM12.825 18C10.464 18 8.55 15.9853 8.55 13.5C8.55 11.0147 10.464 9 12.825 9C15.186 9 17.1 11.0147 17.1 13.5C17.1 15.9853 15.186 18 12.825 18Z" fill="url(#paint1_radial_29_1594)"/>
<path d="M19.671 7.91366C20.521 7.91366 21.21 7.18839 21.21 6.29368C21.21 5.39897 20.521 4.67365 19.671 4.67365C18.8211 4.67365 18.132 5.39897 18.132 6.29368C18.132 7.18839 18.8211 7.91366 19.671 7.91366Z" fill="url(#paint2_linear_29_1594)"/>
<path d="M19.671 7.91366C20.521 7.91366 21.21 7.18839 21.21 6.29368C21.21 5.39897 20.521 4.67365 19.671 4.67365C18.8211 4.67365 18.132 5.39897 18.132 6.29368C18.132 7.18839 18.8211 7.91366 19.671 7.91366Z" fill="url(#paint3_radial_29_1594)"/>
<path fill-rule="evenodd" clip-rule="evenodd" d="M12.825 0C9.34194 0 8.90519 0.0155406 7.53727 0.0812399C6.1722 0.146778 5.2399 0.375011 4.42414 0.708759C3.58078 1.05371 2.86556 1.51532 2.15253 2.26582C1.43955 3.01638 1.00102 3.76924 0.673321 4.65699C0.356261 5.51569 0.13944 6.49705 0.0771779 7.93397C0.0147636 9.37389 0 9.83362 0 13.5C0 17.1664 0.0147636 17.6261 0.0771779 19.066C0.13944 20.503 0.356261 21.4843 0.673321 22.343C1.00102 23.2308 1.43955 23.9836 2.15253 24.7342C2.86556 25.4847 3.58078 25.9463 4.42414 26.2913C5.2399 26.625 6.1722 26.8532 7.53727 26.9188C8.90519 26.9845 9.34194 27 12.825 27C16.3081 27 16.7448 26.9845 18.1127 26.9188C19.4778 26.8532 20.4101 26.625 21.2259 26.2913C22.0692 25.9463 22.7844 25.4847 23.4975 24.7342C24.2104 23.9836 24.649 23.2308 24.9767 22.343C25.2937 21.4843 25.5106 20.503 25.5728 19.066C25.6352 17.6261 25.65 17.1664 25.65 13.5C25.65 9.83362 25.6352 9.37389 25.5728 7.93397C25.5106 6.49705 25.2937 5.51569 24.9767 4.65699C24.649 3.76924 24.2104 3.01638 23.4975 2.26582C22.7844 1.51532 22.0692 1.05371 21.2259 0.708759C20.4101 0.375011 19.4778 0.146778 18.1127 0.0812399C16.7448 0.0155406 16.3081 0 12.825 0ZM12.825 2.43243C16.2494 2.43243 16.6551 2.4462 18.0074 2.51115C19.2578 2.57117 19.9369 2.79109 20.3888 2.97597C20.9875 3.22087 21.4147 3.51341 21.8634 3.98585C22.3123 4.45823 22.5902 4.90794 22.8228 5.53809C22.9985 6.01379 23.2074 6.7286 23.2644 8.04484C23.3261 9.46836 23.3392 9.89535 23.3392 13.5C23.3392 17.1046 23.3261 17.5316 23.2644 18.9552C23.2074 20.2714 22.9985 20.9862 22.8228 21.4619C22.5902 22.0921 22.3123 22.5418 21.8634 23.0142C21.4147 23.4866 20.9875 23.7791 20.3888 24.024C19.9369 24.2089 19.2578 24.4288 18.0074 24.4889C16.6553 24.5538 16.2497 24.5676 12.825 24.5676C9.40033 24.5676 8.99479 24.5538 7.6426 24.4889C6.39218 24.4288 5.7131 24.2089 5.26118 24.024C4.66255 23.7791 4.23532 23.4866 3.78656 23.0142C3.3378 22.5418 3.05983 22.0921 2.82718 21.4619C2.65154 20.9862 2.44261 20.2714 2.38559 18.9552C2.32389 17.5316 2.31081 17.1046 2.31081 13.5C2.31081 9.89535 2.32389 9.46836 2.38559 8.04484C2.44261 6.7286 2.65154 6.01379 2.82718 5.53809C3.05983 4.90794 3.33774 4.45823 3.78656 3.98585C4.23532 3.51341 4.66255 3.22087 5.26118 2.97597C5.7131 2.79109 6.39218 2.57117 7.6426 2.51115C8.99495 2.4462 9.40059 2.43243 12.825 2.43243Z" fill="url(#paint4_linear_29_1594)"/>
<path fill-rule="evenodd" clip-rule="evenodd" d="M12.825 0C9.34194 0 8.90519 0.0155406 7.53727 0.0812399C6.1722 0.146778 5.2399 0.375011 4.42414 0.708759C3.58078 1.05371 2.86556 1.51532 2.15253 2.26582C1.43955 3.01638 1.00102 3.76924 0.673321 4.65699C0.356261 5.51569 0.13944 6.49705 0.0771779 7.93397C0.0147636 9.37389 0 9.83362 0 13.5C0 17.1664 0.0147636 17.6261 0.0771779 19.066C0.13944 20.503 0.356261 21.4843 0.673321 22.343C1.00102 23.2308 1.43955 23.9836 2.15253 24.7342C2.86556 25.4847 3.58078 25.9463 4.42414 26.2913C5.2399 26.625 6.1722 26.8532 7.53727 26.9188C8.90519 26.9845 9.34194 27 12.825 27C16.3081 27 16.7448 26.9845 18.1127 26.9188C19.4778 26.8532 20.4101 26.625 21.2259 26.2913C22.0692 25.9463 22.7844 25.4847 23.4975 24.7342C24.2104 23.9836 24.649 23.2308 24.9767 22.343C25.2937 21.4843 25.5106 20.503 25.5728 19.066C25.6352 17.6261 25.65 17.1664 25.65 13.5C25.65 9.83362 25.6352 9.37389 25.5728 7.93397C25.5106 6.49705 25.2937 5.51569 24.9767 4.65699C24.649 3.76924 24.2104 3.01638 23.4975 2.26582C22.7844 1.51532 22.0692 1.05371 21.2259 0.708759C20.4101 0.375011 19.4778 0.146778 18.1127 0.0812399C16.7448 0.0155406 16.3081 0 12.825 0ZM12.825 2.43243C16.2494 2.43243 16.6551 2.4462 18.0074 2.51115C19.2578 2.57117 19.9369 2.79109 20.3888 2.97597C20.9875 3.22087 21.4147 3.51341 21.8634 3.98585C22.3123 4.45823 22.5902 4.90794 22.8228 5.53809C22.9985 6.01379 23.2074 6.7286 23.2644 8.04484C23.3261 9.46836 23.3392 9.89535 23.3392 13.5C23.3392 17.1046 23.3261 17.5316 23.2644 18.9552C23.2074 20.2714 22.9985 20.9862 22.8228 21.4619C22.5902 22.0921 22.3123 22.5418 21.8634 23.0142C21.4147 23.4866 20.9875 23.7791 20.3888 24.024C19.9369 24.2089 19.2578 24.4288 18.0074 24.4889C16.6553 24.5538 16.2497 24.5676 12.825 24.5676C9.40033 24.5676 8.99479 24.5538 7.6426 24.4889C6.39218 24.4288 5.7131 24.2089 5.26118 24.024C4.66255 23.7791 4.23532 23.4866 3.78656 23.0142C3.3378 22.5418 3.05983 22.0921 2.82718 21.4619C2.65154 20.9862 2.44261 20.2714 2.38559 18.9552C2.32389 17.5316 2.31081 17.1046 2.31081 13.5C2.31081 9.89535 2.32389 9.46836 2.38559 8.04484C2.44261 6.7286 2.65154 6.01379 2.82718 5.53809C3.05983 4.90794 3.33774 4.45823 3.78656 3.98585C4.23532 3.51341 4.66255 3.22087 5.26118 2.97597C5.7131 2.79109 6.39218 2.57117 7.6426 2.51115C8.99495 2.4462 9.40059 2.43243 12.825 2.43243Z" fill="url(#paint5_radial_29_1594)"/>
<defs>
<linearGradient id="paint0_linear_29_1594" x1="1.4966" y1="1.41947" x2="10.3973" y2="34.1269" gradientUnits="userSpaceOnUse">
<stop stop-color="#4E60D3"/>
<stop offset="0.142763" stop-color="#913BAF"/>
<stop offset="0.761458" stop-color="#D52D88"/>
<stop offset="1" stop-color="#F26D4F"/>
</linearGradient>
<radialGradient id="paint1_radial_29_1594" cx="0" cy="0" r="1" gradientUnits="userSpaceOnUse" gradientTransform="translate(7.76537 27) rotate(33.4987) scale(24.3196 17.876)">
<stop stop-color="#FED276"/>
<stop offset="0.17024" stop-color="#FDBD61" stop-opacity="0.975006"/>
<stop offset="0.454081" stop-color="#F6804D"/>
<stop offset="1" stop-color="#E83D5C" stop-opacity="0.01"/>
</radialGradient>
<linearGradient id="paint2_linear_29_1594" x1="1.4966" y1="1.41947" x2="10.3973" y2="34.1269" gradientUnits="userSpaceOnUse">
<stop stop-color="#4E60D3"/>
<stop offset="0.142763" stop-color="#913BAF"/>
<stop offset="0.761458" stop-color="#D52D88"/>
<stop offset="1" stop-color="#F26D4F"/>
</linearGradient>
<radialGradient id="paint3_radial_29_1594" cx="0" cy="0" r="1" gradientUnits="userSpaceOnUse" gradientTransform="translate(7.76537 27) rotate(33.4987) scale(24.3196 17.876)">
<stop stop-color="#FED276"/>
<stop offset="0.17024" stop-color="#FDBD61" stop-opacity="0.975006"/>
<stop offset="0.454081" stop-color="#F6804D"/>
<stop offset="1" stop-color="#E83D5C" stop-opacity="0.01"/>
</radialGradient>
<linearGradient id="paint4_linear_29_1594" x1="1.4966" y1="1.41947" x2="10.3973" y2="34.1269" gradientUnits="userSpaceOnUse">
<stop stop-color="#4E60D3"/>
<stop offset="0.142763" stop-color="#913BAF"/>
<stop offset="0.761458" stop-color="#D52D88"/>
<stop offset="1" stop-color="#F26D4F"/>
</linearGradient>
<radialGradient id="paint5_radial_29_1594" cx="0" cy="0" r="1" gradientUnits="userSpaceOnUse" gradientTransform="translate(7.76537 27) rotate(33.4987) scale(24.3196 17.876)">
<stop stop-color="#FED276"/>
<stop offset="0.17024" stop-color="#FDBD61" stop-opacity="0.975006"/>
<stop offset="0.454081" stop-color="#F6804D"/>
<stop offset="1" stop-color="#E83D5C" stop-opacity="0.01"/>
</radialGradient>
</defs>
</svg>
