<svg width="28" height="27" viewBox="0 0 28 27" fill="none" xmlns="http://www.w3.org/2000/svg">
<path fill-rule="evenodd" clip-rule="evenodd" d="M27.6499 13.5C27.6499 20.9558 21.6057 27 14.1499 27C6.69406 27 0.649902 20.9558 0.649902 13.5C0.649902 6.04416 6.69406 0 14.1499 0C21.6057 0 27.6499 6.04416 27.6499 13.5ZM14.6337 9.9663C13.3206 10.5125 10.6963 11.6429 6.76077 13.3575C6.1217 13.6116 5.78693 13.8603 5.75646 14.1034C5.70495 14.5142 6.21944 14.676 6.92005 14.8963C7.01534 14.9262 7.11409 14.9573 7.21532 14.9902C7.90461 15.2143 8.83182 15.4764 9.31384 15.4868C9.75108 15.4962 10.2391 15.316 10.7779 14.946C14.4549 12.4639 16.3531 11.2093 16.4722 11.1822C16.5563 11.1632 16.6728 11.1392 16.7518 11.2093C16.8307 11.2795 16.8229 11.4124 16.8146 11.448C16.7636 11.6653 14.7441 13.5428 13.6989 14.5145C13.3731 14.8174 13.142 15.0323 13.0947 15.0814C12.9889 15.1913 12.881 15.2953 12.7774 15.3952C12.137 16.0125 11.6568 16.4754 12.804 17.2314C13.3552 17.5947 13.7963 17.8951 14.2364 18.1948C14.717 18.5221 15.1964 18.8485 15.8167 19.2551C15.9747 19.3587 16.1256 19.4663 16.2726 19.5711C16.832 19.9699 17.3345 20.3281 17.9553 20.271C18.316 20.2378 18.6887 19.8986 18.8779 18.8869C19.3251 16.496 20.2042 11.3158 20.4074 9.1811C20.4252 8.99407 20.4028 8.75472 20.3848 8.64965C20.3668 8.54458 20.3293 8.39487 20.1927 8.28405C20.0309 8.15281 19.7812 8.12513 19.6695 8.1271C19.1618 8.13604 18.3828 8.40692 14.6337 9.9663Z" fill="url(#paint0_linear_29_1595)"/>
<defs>
<linearGradient id="paint0_linear_29_1595" x1="14.1499" y1="0" x2="14.1499" y2="26.7998" gradientUnits="userSpaceOnUse">
<stop stop-color="#2AABEE"/>
<stop offset="1" stop-color="#229ED9"/>
</linearGradient>
</defs>
</svg>
