<svg width="27" height="27" viewBox="0 0 27 27" fill="none" xmlns="http://www.w3.org/2000/svg">
<path d="M7.75494 22.7189L8.1409 22.9597C9.76267 23.9727 11.622 24.5085 13.518 24.5096H13.5222C19.345 24.5096 24.0842 19.5222 24.0867 13.3924C24.0875 10.4217 22.9899 7.62842 20.9952 5.52721C19.0004 3.42606 16.3481 2.26819 13.5261 2.26697C7.69869 2.26697 2.95963 7.25372 2.95732 13.3833C2.95653 15.4838 3.51483 17.5295 4.57245 19.2996L4.82391 19.7201L3.75635 23.8224L7.75494 22.7189ZM0.70459 27.0002L2.50786 20.0693C1.39563 18.0409 0.810449 15.7398 0.811302 13.3824C0.814106 6.0077 6.51583 0.0078125 13.5222 0.0078125C16.9222 0.00935213 20.1134 1.40234 22.5134 3.93035C24.913 6.45856 26.234 9.81913 26.2329 13.3933C26.2299 20.7676 20.5274 26.7686 13.5222 26.7686C13.5217 26.7686 13.5225 26.7686 13.5222 26.7686H13.5167C11.3896 26.7677 9.29926 26.2061 7.44279 25.1404L0.70459 27.0002Z" fill="white"/>
<path d="M1.24111 13.3715C1.24111 15.6646 1.81047 17.8795 2.8997 19.8339L1.14209 26.5308L7.65266 24.7328C9.43502 25.7751 11.4649 26.2962 13.5196 26.2962C20.2777 26.2962 25.7981 20.5114 25.7981 13.3976C25.7981 9.93187 24.5108 6.70068 22.2086 4.25124C19.8816 1.82785 16.812 0.472839 13.5196 0.472839C6.76148 0.472839 1.24111 6.2577 1.24111 13.3715Z" fill="url(#paint0_linear_29_1596)"/>
<path d="M0.802641 13.361C0.802641 15.7364 1.39242 18.0307 2.5207 20.0552L0.700069 26.9922L7.44411 25.1297C9.29039 26.2094 11.3931 26.7493 13.5214 26.7493C20.5219 26.7493 26.2402 20.757 26.2402 13.388C26.2402 9.79806 24.9068 6.45101 22.522 3.91372C20.1116 1.40344 16.9319 -0.000165939 13.5214 -0.000165939C6.52097 -0.000165939 0.802641 5.99214 0.802641 13.361ZM4.82855 19.7043L4.57212 19.2994C3.52077 17.5179 2.95663 15.4665 2.95663 13.388C2.95663 7.23378 7.70054 2.26719 13.5214 2.26719C16.3421 2.26719 19.009 3.42786 20.9835 5.50627C22.9836 7.61168 24.0862 10.4189 24.0862 13.388C24.0862 19.5153 19.3423 24.5089 13.5214 24.5089C11.6239 24.5089 9.75196 23.969 8.13646 22.9433L7.75182 22.7004L3.75155 23.8071L4.82855 19.7043Z" fill="url(#paint1_linear_29_1596)"/>
<path fill-rule="evenodd" clip-rule="evenodd" d="M10.3454 7.7959C10.1074 7.23919 9.85702 7.22803 9.63068 7.21828C9.44559 7.20994 9.23363 7.21046 9.02203 7.21046C8.81031 7.21046 8.46616 7.29417 8.17521 7.62872C7.88402 7.96327 7.06348 8.77197 7.06348 10.4167C7.06348 12.0617 8.20166 13.6511 8.3603 13.8743C8.51912 14.0972 10.5574 17.5804 13.7856 18.9205C16.4685 20.0341 17.0144 19.8126 17.5967 19.7569C18.179 19.7011 19.4757 18.9483 19.7404 18.1676C20.0051 17.3871 20.0051 16.7181 19.9257 16.5782C19.8463 16.4389 19.6346 16.3553 19.3169 16.1881C18.9993 16.0209 17.4379 15.2121 17.1467 15.1006C16.8556 14.9892 16.6438 14.9335 16.4321 15.2681C16.2203 15.6025 15.612 16.3553 15.4267 16.5782C15.2414 16.8017 15.0561 16.8295 14.7385 16.6623C14.4209 16.4946 13.398 16.142 12.1845 15.0031C11.2404 14.1171 10.603 13.0228 10.4176 12.6881C10.2324 12.3537 10.3978 12.1726 10.5571 12.006C10.6998 11.8562 10.8748 11.6157 11.0336 11.4205C11.1921 11.2253 11.245 11.086 11.3509 10.863C11.4567 10.6398 11.4038 10.4446 11.3244 10.2774C11.245 10.1102 10.6278 8.45692 10.3454 7.7959Z" fill="white"/>
<defs>
<linearGradient id="paint0_linear_29_1596" x1="13.4687" y1="26.5308" x2="13.4687" y2="0.472839" gradientUnits="userSpaceOnUse">
<stop stop-color="#20B038"/>
<stop offset="1" stop-color="#60D66A"/>
</linearGradient>
<linearGradient id="paint1_linear_29_1596" x1="13.469" y1="26.9922" x2="13.469" y2="-0.000165939" gradientUnits="userSpaceOnUse">
<stop stop-color="#F9F9F9"/>
<stop offset="1" stop-color="white"/>
</linearGradient>
</defs>
</svg>
