<svg width="359" height="83" viewBox="0 0 359 83" fill="none" xmlns="http://www.w3.org/2000/svg">
<path d="M139.217 16.7252L139.217 16.7253C135.933 18.1667 130.618 19.233 124.93 20.0261C119.258 20.8169 113.273 21.3291 108.679 21.6814L108.679 21.6815C107.411 21.7799 106.139 21.7397 105.023 21.5779C103.898 21.4148 102.97 21.1336 102.366 20.7753C101.754 20.413 101.605 20.0662 101.661 19.7581C101.731 19.365 102.156 18.7558 103.367 17.9769L103.707 17.7582L103.564 17.3798L101.722 12.497L101.722 12.4968C101.512 11.942 101.526 11.558 101.614 11.3086C101.699 11.0662 101.877 10.8891 102.131 10.7795C102.669 10.5479 103.501 10.6515 104.102 11.1506L104.102 11.1506L104.108 11.1554C105.528 12.2995 107.188 13.7245 108.717 15.0796L108.956 15.2918L109.249 15.1635C111.306 14.2627 113.505 13.3218 115.817 12.4021L116.524 12.1205L115.984 11.5831L107.684 3.32185C107.684 3.32166 107.684 3.32147 107.683 3.32128C107.616 3.25333 107.551 3.18979 107.49 3.12949C107.336 2.97675 107.203 2.84479 107.084 2.71454C106.921 2.53485 106.825 2.39965 106.776 2.28564C106.733 2.18675 106.724 2.10199 106.749 1.99916C106.778 1.88174 106.86 1.70963 107.063 1.46506L107.064 1.46376C107.432 1.01704 108.145 0.73371 108.986 0.65605C109.818 0.579215 110.638 0.717486 111.126 0.967239C111.127 0.967601 111.127 0.967964 111.128 0.968327L125.946 8.77225L126.152 8.88072L126.368 8.79292C131.659 6.63825 137.978 5.62374 142.482 9.00943L142.493 9.01782L142.505 9.02558C143.385 9.61333 143.898 10.2406 144.133 10.8541C144.365 11.4586 144.344 12.0973 144.07 12.7593C143.507 14.1163 141.87 15.5627 139.217 16.7252Z" fill="#EF382A" stroke="black"/>
<path d="M130.421 30.0816L130.421 30.0816L125.749 22.705C128.069 22.3764 130.383 21.9999 132.666 21.5295C133.289 21.4032 133.917 21.2651 134.541 21.1197C134.578 23.1262 134.612 25.6279 134.612 28.5868C134.612 29.9604 134.373 30.6993 134.042 31.1266C133.722 31.5407 133.25 31.7486 132.54 31.8908L132.539 31.8909C132.135 31.9724 131.923 32.0103 131.777 32.0096C131.679 32.0092 131.654 31.9937 131.611 31.9536C131.527 31.8764 131.42 31.7267 131.22 31.3962C131.17 31.3125 131.114 31.2192 131.053 31.1165C130.888 30.8396 130.682 30.494 130.421 30.0816Z" fill="#EF382A" stroke="black"/>
<path d="M38.1705 65V38.8182H47.017C49.0625 38.8182 50.7415 39.1676 52.054 39.8665C53.3665 40.5568 54.3381 41.5071 54.9688 42.7173C55.5994 43.9276 55.9148 45.304 55.9148 46.8466C55.9148 48.3892 55.5994 49.7571 54.9688 50.9503C54.3381 52.1435 53.3707 53.081 52.0668 53.7628C50.7628 54.4361 49.0966 54.7727 47.0682 54.7727H39.9091V51.9091H46.9659C48.3636 51.9091 49.4886 51.7045 50.3409 51.2955C51.2017 50.8864 51.8239 50.3068 52.2074 49.5568C52.5994 48.7983 52.7955 47.8949 52.7955 46.8466C52.7955 45.7983 52.5994 44.8821 52.2074 44.098C51.8153 43.3139 51.1889 42.7088 50.3281 42.2827C49.4673 41.848 48.3295 41.6307 46.9148 41.6307H41.3409V65H38.1705ZM50.4943 53.2386L56.9375 65H53.2557L46.9148 53.2386H50.4943ZM83.2887 51.9091C83.2887 54.6705 82.7901 57.0568 81.793 59.0682C80.7958 61.0795 79.4279 62.6307 77.6893 63.7216C75.9506 64.8125 73.9648 65.358 71.7319 65.358C69.4989 65.358 67.5131 64.8125 65.7745 63.7216C64.0359 62.6307 62.668 61.0795 61.6708 59.0682C60.6737 57.0568 60.1751 54.6705 60.1751 51.9091C60.1751 49.1477 60.6737 46.7614 61.6708 44.75C62.668 42.7386 64.0359 41.1875 65.7745 40.0966C67.5131 39.0057 69.4989 38.4602 71.7319 38.4602C73.9648 38.4602 75.9506 39.0057 77.6893 40.0966C79.4279 41.1875 80.7958 42.7386 81.793 44.75C82.7901 46.7614 83.2887 49.1477 83.2887 51.9091ZM80.2205 51.9091C80.2205 49.642 79.8413 47.7287 79.0827 46.169C78.3327 44.6094 77.3143 43.429 76.0273 42.6278C74.7489 41.8267 73.3171 41.4261 71.7319 41.4261C70.1467 41.4261 68.7106 41.8267 67.4237 42.6278C66.1452 43.429 65.1268 44.6094 64.3683 46.169C63.6183 47.7287 63.2433 49.642 63.2433 51.9091C63.2433 54.1761 63.6183 56.0895 64.3683 57.6491C65.1268 59.2088 66.1452 60.3892 67.4237 61.1903C68.7106 61.9915 70.1467 62.392 71.7319 62.392C73.3171 62.392 74.7489 61.9915 76.0273 61.1903C77.3143 60.3892 78.3327 59.2088 79.0827 57.6491C79.8413 56.0895 80.2205 54.1761 80.2205 51.9091ZM86.098 41.6307V38.8182H105.734V41.6307H97.5014V65H94.331V41.6307H86.098ZM110.627 65V38.8182H126.429V41.6307H113.798V50.4773H125.61V53.2898H113.798V62.1875H126.633V65H110.627ZM132.143 65V38.8182H135.314V51.8068H135.62L147.382 38.8182H151.524L140.529 50.6307L151.524 65H147.689L138.586 52.8295L135.314 56.5114V65H132.143ZM154.196 41.6307V38.8182H173.832V41.6307H165.599V65H162.429V41.6307H154.196ZM199.726 51.9091C199.726 54.6705 199.228 57.0568 198.23 59.0682C197.233 61.0795 195.865 62.6307 194.127 63.7216C192.388 64.8125 190.402 65.358 188.169 65.358C185.936 65.358 183.951 64.8125 182.212 63.7216C180.473 62.6307 179.105 61.0795 178.108 59.0682C177.111 57.0568 176.613 54.6705 176.613 51.9091C176.613 49.1477 177.111 46.7614 178.108 44.75C179.105 42.7386 180.473 41.1875 182.212 40.0966C183.951 39.0057 185.936 38.4602 188.169 38.4602C190.402 38.4602 192.388 39.0057 194.127 40.0966C195.865 41.1875 197.233 42.7386 198.23 44.75C199.228 46.7614 199.726 49.1477 199.726 51.9091ZM196.658 51.9091C196.658 49.642 196.279 47.7287 195.52 46.169C194.77 44.6094 193.752 43.429 192.465 42.6278C191.186 41.8267 189.755 41.4261 188.169 41.4261C186.584 41.4261 185.148 41.8267 183.861 42.6278C182.583 43.429 181.564 44.6094 180.806 46.169C180.056 47.7287 179.681 49.642 179.681 51.9091C179.681 54.1761 180.056 56.0895 180.806 57.6491C181.564 59.2088 182.583 60.3892 183.861 61.1903C185.148 61.9915 186.584 62.392 188.169 62.392C189.755 62.392 191.186 61.9915 192.465 61.1903C193.752 60.3892 194.77 59.2088 195.52 57.6491C196.279 56.0895 196.658 54.1761 196.658 51.9091ZM205.057 65V38.8182H213.904C215.949 38.8182 217.628 39.1676 218.941 39.8665C220.253 40.5568 221.225 41.5071 221.855 42.7173C222.486 43.9276 222.801 45.304 222.801 46.8466C222.801 48.3892 222.486 49.7571 221.855 50.9503C221.225 52.1435 220.257 53.081 218.953 53.7628C217.65 54.4361 215.983 54.7727 213.955 54.7727H206.796V51.9091H213.853C215.25 51.9091 216.375 51.7045 217.228 51.2955C218.088 50.8864 218.711 50.3068 219.094 49.5568C219.486 48.7983 219.682 47.8949 219.682 46.8466C219.682 45.7983 219.486 44.8821 219.094 44.098C218.702 43.3139 218.076 42.7088 217.215 42.2827C216.354 41.848 215.216 41.6307 213.801 41.6307H208.228V65H205.057ZM217.381 53.2386L223.824 65H220.142L213.801 53.2386H217.381Z" fill="white"/>
<path d="M14.1705 65V38.8182H23.017C25.071 38.8182 26.75 39.1889 28.054 39.9304C29.3665 40.6634 30.3381 41.6562 30.9688 42.9091C31.5994 44.1619 31.9148 45.5597 31.9148 47.1023C31.9148 48.6449 31.5994 50.0469 30.9688 51.3082C30.3466 52.5696 29.3835 53.5753 28.0795 54.3253C26.7756 55.0668 25.1051 55.4375 23.0682 55.4375H16.7273V52.625H22.9659C24.3722 52.625 25.5014 52.3821 26.3537 51.8963C27.206 51.4105 27.8239 50.7543 28.2074 49.9276C28.5994 49.0923 28.7955 48.1506 28.7955 47.1023C28.7955 46.054 28.5994 45.1165 28.2074 44.2898C27.8239 43.4631 27.2017 42.8153 26.3409 42.3466C25.4801 41.8693 24.3381 41.6307 22.9148 41.6307H17.3409V65H14.1705Z" fill="white"/>
<path d="M42.9993 26.5501C62.3654 19.9754 83.903 15.9055 97.6196 14.9579C97.1409 16.1272 96.8332 17.4549 97.0579 18.8133C97.2884 20.2064 98.0662 21.5619 99.646 22.7741C74.7359 25.7202 52.9811 30.6287 36.4689 36.3246C28.0641 39.2238 21.0065 42.3307 15.5788 45.4932C10.1639 48.6483 6.31926 51.8881 4.40631 55.0759L4.83504 55.3332L4.4063 55.0759C3.70412 56.2462 3.31915 57.8252 4.08064 59.0899C4.80659 60.2956 6.42796 60.9792 9.11719 60.8703V62.1729C6.31147 63.0179 3.7032 62.5743 2.12666 61.1824C0.521782 59.7655 -0.16593 57.2227 1.32265 53.6056C3.58592 48.1105 9.02123 43.0261 16.43 38.4606C23.8254 33.9034 33.12 29.9041 42.9993 26.5501Z" fill="#EF382A" stroke="black"/>
</svg>
