<svg width="217" height="43" viewBox="0 0 217 43" fill="none" xmlns="http://www.w3.org/2000/svg">
<path d="M139 0H78C75.7909 0 74 1.79086 74 4V39C74 41.2091 75.7909 43 78 43H139C141.209 43 143 41.2091 143 39V4C143 1.79086 141.209 0 139 0Z" fill="#1B2846"/>
<path d="M109 13.1495L105 28H101L105 13.1495H109ZM125 23.0498L127 17.1096L129 23.0498H125ZM130 28H133L130 13.1495H127C126.241 13.1495 125.283 13.4751 125 14.1395L119 28H123L124 26.0199H129L130 28ZM119 23.0498C119.017 19.1066 113.963 18.8714 114 17.1096C114.012 16.5741 114.86 16.2653 116 16.1196C116.565 16.0481 117.233 15.3219 119 16.1196L120 13.1495C119.051 12.8132 117.519 13.1495 116 13.1495C112.101 13.1495 110.022 15.1905 110 18.0996C109.975 20.2509 111.508 21.3434 113 22.0598C114.538 22.7922 115.007 23.3856 115 24.0399C114.989 25.0423 114.132 25.013 113 25.0299C111.016 25.0601 109.917 24.4586 109 24.0399L108 27.01C108.923 27.4241 111.239 27.9814 113 28C117.145 28 118.988 26.1564 119 23.0498ZM103 13.1495L97 28H92L89 16.1196C88.8095 15.3863 88.5799 15.4394 88 15.1295C87.0516 14.6245 86.3766 13.4433 85 13.1495V13.1495H91C91.8548 13.1495 92.8044 13.1745 93 14.1395L95 23.0498L99 13.1495H103Z" fill="#3669B4"/>
<path d="M213 0H152C149.791 0 148 1.79086 148 4V39C148 41.2091 149.791 43 152 43H213C215.209 43 217 41.2091 217 39V4C217 1.79086 215.209 0 213 0Z" fill="#1B2846"/>
<path fill-rule="evenodd" clip-rule="evenodd" d="M196.009 17.0667C194.66 17.0667 193.886 16.9166 193.067 17.0667V18.0109C193.47 17.8262 194.938 18.0455 196.009 18.0109C197.081 17.9763 197.217 18.1241 196.99 18.9551C193.813 18.9551 192.527 19.9063 192.086 21.7878C191.455 25.0197 194.459 24.1402 196.009 22.732V23.6762H197.971L199.933 18.9551C200.437 16.7967 198.001 17.0321 196.009 17.0667ZM196.009 20.8436C195.858 21.5361 195.747 22.6974 195.028 22.732C194.398 22.7666 194.612 21.4438 195.028 20.8436C195.344 20.3357 195.48 20.8436 196.009 20.8436C196.224 20.8436 195.795 20.8436 196.009 20.8436C195.946 21.0744 196.072 20.6012 196.009 20.8436Z" fill="#4C98D1"/>
<path fill-rule="evenodd" clip-rule="evenodd" d="M205 16L203 27H205L208 16H205Z" fill="#4C98D1"/>
<path fill-rule="evenodd" clip-rule="evenodd" d="M189.942 16H184.99L184 27H185.981V23H188.952C191.13 23 192.426 21.2977 192.913 19C193.438 16.4021 191.48 16 189.942 16ZM189.942 19C189.75 19.8486 188.769 21 187.961 21H186.971L187.961 18H188.952C189.772 18 190.134 18.1645 189.942 19Z" fill="#4C98D1"/>
<path fill-rule="evenodd" clip-rule="evenodd" d="M166.992 17.0667C165.68 17.0667 164.847 16.9166 164.08 17.0667V18.0109C164.451 17.8262 164.981 18.0455 166.021 18.0109C167.061 17.9763 167.178 18.1241 166.992 18.9551C163.91 18.9551 163.53 19.9063 163.109 21.7878C162.502 25.0197 164.561 24.1402 166.021 22.732V23.6762H168.933L169.904 18.9551C170.399 16.7967 168.91 17.0321 166.992 17.0667ZM166.992 20.8436C166.843 21.5361 166.714 22.6974 166.021 22.732C165.415 22.7666 165.625 21.4438 166.021 20.8436C166.331 20.3357 165.538 20.8436 166.021 20.8436C166.269 20.8436 166.744 20.8436 166.992 20.8436C166.918 21.0744 167.017 20.6012 166.992 20.8436Z" fill="#2743BE"/>
<path fill-rule="evenodd" clip-rule="evenodd" d="M174 18H177L178 23L181 18H184L177 30H174L176 26L174 18Z" fill="#2743BE"/>
<path fill-rule="evenodd" clip-rule="evenodd" d="M160.939 16H155.99L155 27H156.98V23H159.949C162.1 23 163.435 21.2977 163.908 19C164.446 16.4021 162.513 16 160.939 16ZM160.939 19C160.747 19.8486 159.766 21 158.959 21H157.969L158.959 18H159.949C160.717 18 161.169 18.1645 160.939 19Z" fill="#2743BE"/>
<path d="M209 16V15V15V15H210V15H209V16V16Z" fill="#2743BE"/>
<path d="M209.015 14.0106V14.0106V14.0106V14.0106C209.053 14.1113 209.002 13.9602 209.015 14.0106C209.027 13.9602 208.976 14.1113 209.015 14.0106H210.015V14.0106V14.0106V14.0106V14.0106H209.015V14.0106V14.0106V14.0106V14.0106V14.0106Z" fill="#2743BE"/>
<path d="M65 0H3C0.967592 0 0 0.983164 0 3V39C0 41.0168 0.967592 43 3 43H65C67.0324 43 69 41.0168 69 39V3C69 0.983164 67.0324 0 65 0Z" fill="#1B2846"/>
<path d="M19 35.9999V33.115C19 32.2783 18.8758 32.1533 18 32.1533C17.54 32.1533 17.3432 32.6462 17 33.115C16.7332 32.7146 15.575 32.1533 15 32.1533C14.5658 32.1354 14.2551 31.8175 14 32.1533V32.1533V32.1533V35.9999V35.9999V33.115C14 32.5004 14.4664 33.115 15 33.115C15.5336 33.115 16 32.5338 16 33.115V35.9999H17V33.115C17 32.5004 17.4664 33.115 18 33.115C18.5336 33.115 18 32.5338 18 33.115V35.9999H19ZM31 32.1533H30V32.1533H29V32.1533H28V33.115H29V34.0766C29 34.8764 29.0855 35.9999 30 35.9999C30.3465 35.993 30.6969 35.1985 31 35.0382V35.0382C30.7944 35.1608 30.2424 35.0422 30 35.0382C29.6191 35.0382 30 34.44 30 34.0766V33.115H31V32.1533V32.1533ZM38 32.1533C37.5988 32.1448 37.2133 31.829 37 32.1533V32.1533H36V35.9999H37V34.0766C37 33.4945 37.5041 33.115 38 33.115C38.1673 33.1214 37.8384 33.073 38 33.115V32.1533C37.8253 32.1113 38.18 32.1597 38 32.1533ZM28 32.1533C27.6191 31.8987 26.5713 32.1533 26 32.1533C25.0855 32.1533 25 32.424 25 33.115C25 33.697 25.2005 33.9669 26 34.0766V34.0766C26.4195 34.1495 27 34.8565 27 35.0382C27 35.2928 26.5722 35.0382 26 35.0382C25.5631 35.0468 25.3541 35.2827 25 35.0382V35.0382C25.5336 35.4017 25.6173 35.9999 26 35.9999C27.0672 35.9999 28 34.7315 28 34.0766C28 33.4621 26.7976 33.2247 26 33.115V33.115C25.6568 33.079 25 33.3327 25 33.115C25 32.8604 25.5805 33.115 26 33.115C26.46 33.115 26.7709 33.0061 27 33.115L28 32.1533ZM39 34.0766C39 35.1301 39.8187 35.9999 41 35.9999C41.5336 35.9999 41.6191 35.3297 42 35.0382V35.0382C41.7303 35.2466 41.347 35.0346 41 35.0382C40.356 35.0382 39 34.7675 39 34.0766C39 33.3857 40.3496 33.115 41 33.115C41.347 33.1186 41.7303 32.9066 42 33.115V32.1533C41.6191 31.8627 41.5336 32.1533 41 32.1533C39.8564 32.0805 39 33.0222 39 34.0766V34.0766ZM34 32.1533C32.9328 32.1533 32 32.9854 32 34.0766C32 35.1678 32.8951 35.9999 34 35.9999C34.5375 36.0107 34.5767 35.3545 35 35.0382V35.0382C34.6938 35.2646 34.3872 35.0285 34 35.0382C33.505 35.0382 33.0754 34.6946 33 34.0766H35V34.0766C35 32.9854 35.0286 32.1533 34 32.1533V32.1533ZM34 33.115C34.5336 33.115 34.9623 32.5698 35 33.115H33C33.1141 32.6058 33.4314 33.115 34 33.115ZM24 34.0766V32.1533H23V32.1533C22.7332 31.8259 22.5373 32.1533 22 32.1533C20.9714 32.1533 20 33.0222 20 34.0766C20 35.131 20.9705 35.9999 22 35.9999C22.5336 35.9999 22.7332 35.3657 23 35.0382V35.9999H24V34.0766ZM21 34.0766C21 33.4217 21.276 33.115 22 33.115C22.6863 33.115 23 33.4226 23 34.0766C23 34.7675 22.644 35.0382 22 35.0382C21.276 35.0742 21 34.7306 21 34.0766ZM49 32.1533C48.5988 32.1448 48.2133 31.829 48 32.1533V32.1533H47V35.9999H48V34.0766C48 33.4945 48.5041 33.115 49 33.115C49.1673 33.1214 48.8384 33.073 49 33.115V32.1533C48.8253 32.1113 49.18 32.1597 49 32.1533V32.1533ZM46 34.0766V32.1533H45V32.1533C44.7332 31.8259 44.5373 32.1533 44 32.1533C42.9714 32.1533 42 33.0222 42 34.0766C42 35.131 42.9705 35.9999 44 35.9999C44.5336 35.9999 44.7332 35.3657 45 35.0382V35.9999H46V34.0766ZM43 34.0766C43 33.4217 43.276 33.115 44 33.115C44.6863 33.115 45 33.4226 45 34.0766C45 34.7675 44.644 35.0382 44 35.0382C43.276 35.0742 43 34.7306 43 34.0766ZM53 34.0766V32.1533V32.1533V32.1533C52.7332 31.8259 52.5373 32.1533 52 32.1533C50.9714 32.1533 50 33.0222 50 34.0766C50 35.131 50.9705 35.9999 52 35.9999C52.5336 35.9999 52.7332 35.3657 53 35.0382V35.9999V35.9999V34.0766ZM51 34.0766C51 33.4217 51.276 33.115 52 33.115C52.6863 33.115 53 33.4226 53 34.0766C53 34.7675 52.644 35.0382 52 35.0382C51.275 35.0751 51 34.7315 51 34.0766V34.0766Z" fill="white"/>
<path d="M41 7H28V28H41V7Z" fill="#FF5F00"/>
<path d="M27.1431 16.5C27.1439 12.4341 29.8733 8.1424 33 5.61964C27.6656 1.34249 19.0571 2.51429 14.453 7.59789C9.84899 12.6815 9.84899 20.3185 14.453 25.4021C19.0571 30.4857 27.6656 31.6575 33 27.3804C29.8733 24.8576 27.1439 20.5659 27.1431 16.5Z" fill="#EB001B"/>
<path d="M56 16.5C56.0038 21.6511 52.7197 26.1865 48 28.4394C43.2803 30.6923 39.1261 30.6278 35 27.4445C38.2971 24.8854 39 20.6257 39 16.5C39 12.3743 38.2971 8.1146 35 5.55553C39.1261 2.37217 43.2803 2.30766 48 4.56058C52.7197 6.8135 56.0038 11.3489 56 16.5Z" fill="#F79E1B"/>
</svg>
