<svg width="30" height="30" viewBox="0 0 30 30" fill="none" xmlns="http://www.w3.org/2000/svg">
<path fill-rule="evenodd" clip-rule="evenodd" d="M30 15C30 23.2843 23.2843 30 15 30C6.71573 30 0 23.2843 0 15C0 6.71573 6.71573 0 15 0C23.2843 0 30 6.71573 30 15ZM15.5375 11.0737C14.0785 11.6805 11.1627 12.9365 6.78985 14.8417C6.07978 15.124 5.70781 15.4003 5.67395 15.6704C5.61672 16.1269 6.18838 16.3066 6.96683 16.5514C7.07271 16.5847 7.18243 16.6192 7.29491 16.6558C8.06079 16.9047 9.09102 17.196 9.62659 17.2076C10.1124 17.218 10.6546 17.0178 11.2533 16.6067C15.3389 13.8488 17.448 12.4548 17.5804 12.4247C17.6738 12.4035 17.8032 12.3769 17.8909 12.4548C17.9786 12.5328 17.97 12.6804 17.9607 12.72C17.9041 12.9614 15.6602 15.0476 14.4989 16.1272C14.1369 16.4638 13.8801 16.7025 13.8276 16.7571C13.71 16.8792 13.5901 16.9947 13.475 17.1058C12.7634 17.7917 12.2299 18.306 13.5045 19.146C14.117 19.5496 14.6071 19.8834 15.0961 20.2164C15.6302 20.5801 16.1628 20.9428 16.852 21.3946C17.0276 21.5097 17.1953 21.6292 17.3586 21.7457C17.9801 22.1887 18.5384 22.5868 19.2282 22.5233C19.629 22.4864 20.0431 22.1095 20.2533 20.9855C20.7503 18.3289 21.727 12.5731 21.9528 10.2012C21.9725 9.99341 21.9477 9.72747 21.9277 9.61072C21.9077 9.49397 21.8659 9.32764 21.7142 9.2045C21.5345 9.05867 21.257 9.02792 21.1329 9.03011C20.5688 9.04004 19.7032 9.34102 15.5375 11.0737Z" fill="#585F79"/>
</svg>
