<svg width="29" height="30" viewBox="0 0 29 30" fill="none" xmlns="http://www.w3.org/2000/svg">
<path d="M8.03305 25.2428L8.46941 25.5104C10.303 26.636 12.4052 27.2313 14.5488 27.2325H14.5535C21.1368 27.2325 26.495 21.6909 26.4978 14.88C26.4987 11.5793 25.2577 8.47565 23.0025 6.14096C20.7472 3.80635 17.7486 2.51983 14.558 2.51847C7.96945 2.51847 2.61145 8.0593 2.60883 14.87C2.60794 17.2039 3.23916 19.4768 4.43491 21.4436L4.71921 21.9109L3.51223 26.469L8.03305 25.2428ZM0.0618896 29.9998L2.10067 22.2989C0.843185 20.0451 0.181575 17.4883 0.182539 14.869C0.185709 6.67485 6.6321 0.00830078 14.5535 0.00830078C18.3976 0.0100115 22.0056 1.55777 24.719 4.36668C27.432 7.1758 28.9256 10.9098 28.9243 14.881C28.9209 23.0747 22.4736 29.7425 14.5535 29.7425C14.553 29.7425 14.5539 29.7425 14.5535 29.7425H14.5473C12.1424 29.7415 9.77906 29.1175 7.68012 27.9333L0.0618896 29.9998Z" fill="#585F79"/>
<path d="M0.668381 14.8576C0.668381 17.4055 1.31211 19.8665 2.54359 22.038L0.556428 29.479L7.91731 27.4812C9.93246 28.6394 12.2275 29.2184 14.5505 29.2184C22.1913 29.2184 28.4326 22.7908 28.4326 14.8866C28.4326 11.0358 26.9772 7.44558 24.3743 4.72398C21.7435 2.03133 18.2729 0.525757 14.5505 0.525757C6.90974 0.525757 0.668381 6.95338 0.668381 14.8576Z" fill="#1B2846"/>
<path d="M0.172643 14.846C0.172643 17.4852 0.839455 20.0345 2.11509 22.2839L0.0566755 29.9917L7.68152 27.9223C9.76892 29.1219 12.1463 29.7218 14.5526 29.7218C22.4673 29.7218 28.9325 23.0637 28.9325 14.876C28.9325 10.8871 27.4249 7.16816 24.7287 4.34896C22.0035 1.55975 18.4085 0.00019455 14.5526 0.00019455C6.63781 0.00019455 0.172643 6.65831 0.172643 14.846ZM4.72435 21.894L4.43443 21.4441C3.24577 19.4647 2.60795 17.1853 2.60795 14.876C2.60795 8.03792 7.97143 2.51948 14.5526 2.51948C17.7417 2.51948 20.7568 3.80912 22.9892 6.11846C25.2505 8.4578 26.4972 11.5769 26.4972 14.876C26.4972 21.6841 21.1337 27.2325 14.5526 27.2325C12.4072 27.2325 10.2908 26.6327 8.46429 25.493L8.02942 25.2231L3.5067 26.4527L4.72435 21.894Z" fill="#585F79"/>
<path fill-rule="evenodd" clip-rule="evenodd" d="M10.9617 8.66173C10.6927 8.04317 10.4096 8.03077 10.1537 8.01993C9.94445 8.01067 9.7048 8.01124 9.46557 8.01124C9.2262 8.01124 8.8371 8.10426 8.50816 8.47598C8.17894 8.8477 7.25122 9.74625 7.25122 11.5738C7.25122 13.4015 8.53806 15.1675 8.71742 15.4155C8.89698 15.6632 11.2015 19.5334 14.8513 21.0224C17.8845 22.2597 18.5018 22.0136 19.1601 21.9517C19.8185 21.8898 21.2846 21.0533 21.5838 20.1859C21.8831 19.3186 21.8831 18.5753 21.7933 18.4199C21.7035 18.2651 21.4641 18.1722 21.105 17.9864C20.7459 17.8007 18.9806 16.9019 18.6514 16.7781C18.3222 16.6543 18.0828 16.5923 17.8434 16.9642C17.604 17.3357 16.9162 18.1722 16.7067 18.4199C16.4972 18.6681 16.2878 18.6991 15.9286 18.5133C15.5695 18.327 14.413 17.9352 13.0411 16.6698C11.9737 15.6852 11.253 14.4694 11.0435 14.0975C10.834 13.726 11.0211 13.5248 11.2012 13.3396C11.3624 13.1731 11.5603 12.906 11.7399 12.6891C11.919 12.4722 11.9789 12.3174 12.0986 12.0697C12.2183 11.8216 12.1585 11.6047 12.0687 11.419C11.9789 11.2332 11.281 9.39619 10.9617 8.66173Z" fill="#585F79"/>
</svg>
