<svg width="184" height="69" viewBox="0 0 184 69" fill="none" xmlns="http://www.w3.org/2000/svg">
<path d="M139.217 16.7252L139.217 16.7253C135.933 18.1667 130.618 19.233 124.93 20.0261C119.258 20.8169 113.273 21.3291 108.679 21.6814L108.679 21.6815C107.411 21.7799 106.139 21.7397 105.023 21.5779C103.898 21.4148 102.97 21.1336 102.366 20.7753C101.754 20.413 101.605 20.0662 101.661 19.7581C101.731 19.365 102.156 18.7558 103.367 17.9769L103.707 17.7582L103.564 17.3798L101.722 12.497L101.722 12.4968C101.512 11.942 101.526 11.558 101.614 11.3086C101.699 11.0662 101.877 10.8891 102.131 10.7795C102.669 10.5479 103.501 10.6515 104.102 11.1506L104.102 11.1506L104.108 11.1554C105.528 12.2995 107.188 13.7245 108.717 15.0796L108.956 15.2918L109.249 15.1635C111.306 14.2627 113.505 13.3218 115.817 12.4021L116.524 12.1205L115.984 11.5831L107.684 3.32185C107.684 3.32166 107.684 3.32147 107.683 3.32128C107.616 3.25333 107.551 3.18979 107.49 3.12949C107.336 2.97675 107.203 2.84479 107.084 2.71454C106.921 2.53485 106.825 2.39965 106.776 2.28564C106.733 2.18675 106.724 2.10199 106.749 1.99916C106.778 1.88174 106.86 1.70963 107.063 1.46506L107.064 1.46376C107.432 1.01704 108.145 0.73371 108.986 0.65605C109.818 0.579215 110.638 0.717486 111.126 0.967239C111.127 0.967601 111.127 0.967964 111.128 0.968327L125.946 8.77225L126.152 8.88072L126.368 8.79292C131.659 6.63825 137.978 5.62374 142.482 9.00943L142.493 9.01782L142.505 9.02558C143.385 9.61333 143.898 10.2406 144.133 10.8541C144.365 11.4586 144.344 12.0973 144.07 12.7593C143.507 14.1163 141.87 15.5627 139.217 16.7252Z" fill="#EF382A" stroke="black"/>
<path d="M130.421 30.0816L130.421 30.0816L125.749 22.705C128.069 22.3764 130.383 21.9999 132.666 21.5295C133.289 21.4032 133.917 21.2651 134.541 21.1197C134.578 23.1262 134.612 25.6279 134.612 28.5868C134.612 29.9604 134.373 30.6993 134.042 31.1266C133.722 31.5407 133.25 31.7486 132.54 31.8908L132.539 31.8909C132.135 31.9724 131.923 32.0103 131.777 32.0096C131.679 32.0092 131.654 31.9937 131.611 31.9536C131.527 31.8764 131.42 31.7267 131.22 31.3962C131.17 31.3125 131.114 31.2192 131.053 31.1165C130.888 30.8396 130.682 30.494 130.421 30.0816Z" fill="#EF382A" stroke="black"/>
<path d="M39.0991 50.7485L39.2895 51.0048C40.3529 52.5556 40.8948 54.4331 40.8948 56.6705C40.8948 59.9357 39.7404 62.4479 37.4417 64.2603L37.4406 64.2611C35.1243 66.0973 31.9042 67.0453 27.7108 67.0453H13.1263C12.1261 67.0453 11.4125 66.7745 10.8953 66.2829C10.3971 65.7998 10.1173 65.0945 10.1173 64.0932V31.0747C10.1173 30.0724 10.3976 29.3668 10.8967 28.8837C11.4012 28.3953 12.1223 28.1225 13.1263 28.1225H27.1518C31.2346 28.1225 34.362 29.0202 36.5947 30.7638L36.5955 30.7645C38.82 32.494 39.9321 34.891 39.9321 38.0412C39.9321 40.0632 39.3995 41.7936 38.3593 43.2443C37.3156 44.6998 35.8588 45.7823 33.9877 46.4664L32.53 46.9994L34.0248 47.4175C36.2301 48.0344 37.9107 49.1485 39.0991 50.7485ZM16.7491 32.7828H16.2491V33.2828V44.4376H16.7388V44.9376H16.7491H17.2491H25.9511C28.5036 44.9376 30.5115 44.4648 31.891 43.4378C33.2981 42.3903 33.9763 40.8238 33.9763 38.8291C33.9763 36.824 33.309 35.2544 31.9069 34.2363C30.5406 33.2442 28.5317 32.7828 25.9615 32.7828H16.7491ZM16.7491 49.6083H16.2491V50.1083V61.885V62.385H16.7491H26.9241C29.603 62.385 31.6659 61.9049 32.9985 60.8579C34.3538 59.7931 35.001 58.1537 35.001 56.0485C35.001 53.9432 34.3538 52.285 32.9707 51.1897C31.6178 50.0999 29.5649 49.6083 26.9241 49.6083H16.7491Z" fill="#FCFCFC" stroke="black"/>
<path d="M48.9321 40.5173L48.9322 40.5173L48.9356 40.5144C49.4916 40.0358 50.2076 39.7853 51.1247 39.7853C52.0414 39.7853 52.7713 40.0357 53.3507 40.5193C53.8921 40.9712 54.1854 41.6425 54.1854 42.6234V64.4872C54.1854 65.4759 53.883 66.163 53.3444 66.6277L53.3439 66.6281C52.7643 67.1295 52.0368 67.3875 51.1247 67.3875C50.2122 67.3875 49.4987 67.1295 48.9422 66.6332L48.6094 67.0063L48.939 66.6303C48.4108 66.1674 48.1157 65.4805 48.1157 64.4872V42.6234C48.1157 41.6387 48.4115 40.9573 48.9321 40.5173Z" fill="#FCFCFC" stroke="black"/>
<path d="M71.9818 67.5119C68.06 67.5119 64.9172 66.7638 62.5346 65.2999L68.3486 62.165L68.2039 62.6435C68.2043 62.6437 68.2047 62.6438 68.2052 62.6439C69.2616 62.9634 70.5873 63.1211 72.1682 63.1211C73.763 63.1211 75.1299 62.8572 76.1309 62.2517C77.1573 61.6414 77.6987 60.7499 77.6987 59.6147C77.6987 58.876 77.4935 58.2342 77.024 57.7371L77.024 57.7371L77.0192 57.7322C76.5747 57.2743 75.8436 56.8905 74.8999 56.5613C73.9493 56.2297 72.5171 55.8616 70.6324 55.4364L70.6324 55.4362L70.6208 55.4339C67.2961 54.7659 64.9953 53.8232 63.6328 52.6622C62.3117 51.5278 61.634 49.9551 61.634 47.8898C61.634 46.3363 62.0873 44.9371 63.0067 43.6868C63.9311 42.4296 65.2018 41.4453 66.848 40.7401C68.4953 40.0345 70.3729 39.6713 72.4994 39.6713C74.041 39.6713 75.519 39.8629 76.9451 40.2451C78.3675 40.6264 79.6337 41.1864 80.757 41.9132L80.7569 41.9133L80.762 41.9164C81.8442 42.5985 82.34 43.4466 82.34 44.4998C82.34 45.1602 82.1617 45.6758 81.8314 46.0811C81.5014 46.4859 81.131 46.6641 80.687 46.6641C80.3422 46.6641 80.0083 46.5956 79.6804 46.4487C79.301 46.2787 78.8083 46.0371 78.2226 45.7034L78.2142 45.6986L78.2056 45.6941C77.093 45.116 76.1318 44.6923 75.3223 44.3936C74.4602 44.0755 73.4123 43.9376 72.2096 43.9376C70.7505 43.9376 69.541 44.2293 68.6113 44.8776L68.6113 44.8776L68.6088 44.8793C67.671 45.5416 67.1862 46.4599 67.1862 47.6099C67.1862 48.1749 67.3058 48.6801 67.5652 49.1233C67.8237 49.5651 68.2023 49.9132 68.6708 50.1948L68.6707 50.1948L68.6747 50.1971C69.5819 50.7309 71.261 51.241 73.6296 51.7279C76.137 52.2528 78.07 52.8441 79.4573 53.5038C80.8282 54.1605 81.7749 54.9545 82.3306 55.8635C82.8901 56.7788 83.1888 57.9869 83.1888 59.5111C83.1888 61.9163 82.2039 63.8209 80.1965 65.2851C78.1742 66.7499 75.4513 67.5119 71.9818 67.5119Z" fill="#FCFCFC" stroke="black"/>
<path d="M105.285 63.7154C105.581 63.9822 105.771 64.3633 105.816 64.9102V65.1713C105.816 65.9143 105.531 66.4438 104.951 66.8122L104.947 66.8149C104.339 67.209 103.419 67.4056 102.116 67.3264C102.115 67.3263 102.114 67.3263 102.113 67.3262L100.598 67.2126L100.597 67.2125C97.5081 66.9901 95.2699 66.0588 93.7998 64.483C92.3299 62.9074 91.5586 60.6132 91.5586 57.5206V45.1737V44.6737H91.0586H88.2328C87.2879 44.6737 86.6295 44.4609 86.2007 44.1136C85.793 43.7735 85.5654 43.2771 85.5654 42.5197C85.5654 41.7611 85.7938 41.2642 86.2028 40.9241C86.6304 40.5687 87.2764 40.3555 88.2328 40.3555H91.0586H91.5586V39.8555V34.6409C91.5586 33.738 91.8393 33.0604 92.3631 32.5696C92.8912 32.0749 93.6273 31.8028 94.6194 31.8028C95.604 31.8028 96.2913 32.0707 96.8238 32.5696C97.3477 33.0604 97.6283 33.738 97.6283 34.6409V39.8555V40.3555H98.1283H102.931C103.878 40.3555 104.534 40.569 104.961 40.9241C105.37 41.2642 105.599 41.7611 105.599 42.5197C105.599 43.2822 105.368 43.7847 104.966 44.1118L104.966 44.1117L104.961 44.1154C104.536 44.4686 103.893 44.6737 102.931 44.6737H98.1283H97.6283V45.1737V58.0286C97.6283 59.498 97.9649 60.7023 98.7121 61.5699C99.4648 62.4437 100.568 62.9003 101.941 63.0056L101.942 63.0057L103.463 63.1197L103.463 63.1197L103.47 63.1202C104.352 63.1736 104.93 63.3955 105.285 63.7154Z" fill="#FCFCFC" stroke="black"/>
<path d="M125.452 39.7631C126.295 39.7011 126.897 39.8688 127.333 40.206L127.34 40.2213L127.417 40.2872C127.842 40.6504 128.091 41.2253 128.091 42.1155C128.091 43.0279 127.86 43.6654 127.501 44.0344C127.138 44.3964 126.394 44.7005 125.142 44.8529L123.45 45.0182L123.448 45.0184C121.137 45.2552 119.37 46.0507 118.216 47.4588L118.216 47.4588L118.213 47.4622C117.095 48.8508 116.55 50.5738 116.55 52.586V64.4768C116.55 65.4655 116.248 66.1526 115.709 66.6174L115.708 66.6178C115.129 67.1192 114.401 67.3771 113.489 67.3771C112.577 67.3771 111.863 67.1192 111.307 66.6228L111.303 66.6199C110.775 66.157 110.48 65.4702 110.48 64.4768V42.5613C110.48 41.6169 110.77 40.9599 111.3 40.504C111.859 40.0226 112.556 39.775 113.437 39.775C114.319 39.775 114.979 40.0228 115.472 40.4644C115.943 40.8965 116.208 41.525 116.208 42.4472V44.7072L117.168 44.9049C117.846 43.3305 118.849 42.1266 120.175 41.283C121.522 40.4264 123.014 39.9343 124.66 39.8257L124.66 39.8258L124.666 39.8252L125.45 39.7632C125.451 39.7632 125.451 39.7632 125.452 39.7631Z" fill="#FCFCFC" stroke="black"/>
<path d="M132.961 40.5173L132.961 40.5173L132.965 40.5144C133.521 40.0358 134.237 39.7853 135.154 39.7853C136.07 39.7853 136.8 40.0357 137.38 40.5193C137.921 40.9712 138.214 41.6425 138.214 42.6234V64.4872C138.214 65.4759 137.912 66.163 137.373 66.6277L137.373 66.6281C136.793 67.1295 136.066 67.3875 135.154 67.3875C134.241 67.3875 133.528 67.1295 132.971 66.6332L132.638 67.0063L132.968 66.6303C132.44 66.1674 132.145 65.4805 132.145 64.4872V42.6234C132.145 41.6387 132.441 40.9573 132.961 40.5173Z" fill="#FCFCFC" stroke="black"/>
<path d="M170.277 62.4185C170.873 62.9838 171.176 63.5956 171.234 64.2507V64.4872C171.234 65.2234 170.977 65.8725 170.434 66.4717C169.895 67.0558 169.299 67.3253 168.629 67.3253C167.953 67.3253 167.294 67.0501 166.653 66.4457L166.653 66.4456L166.646 66.4391L153.418 54.4342L152.582 53.6756V54.8045V64.4872C152.582 65.4766 152.279 66.1485 151.747 66.5908L151.744 66.5938C151.178 67.0737 150.44 67.3253 149.521 67.3253C148.604 67.3253 147.888 67.0748 147.332 66.5962C146.809 66.146 146.522 65.4732 146.522 64.4872V30.6808C146.522 29.6958 146.818 29.0125 147.331 28.5721C147.878 28.1026 148.605 27.8427 149.521 27.8427C150.438 27.8427 151.168 28.0931 151.747 28.5766C152.288 29.0285 152.582 29.6999 152.582 30.6808V51.9744V53.1471L153.428 52.3351L165.528 40.7242L165.528 40.7243L165.533 40.7194C166.136 40.1246 166.78 39.8475 167.501 39.8475C168.231 39.8475 168.861 40.1114 169.414 40.6649C169.967 41.2191 170.23 41.8507 170.23 42.5716C170.23 43.2741 169.94 43.9486 169.306 44.5861L160.432 52.8525L160.031 53.2253L160.439 53.5905L170.277 62.4185Z" fill="#FCFCFC" stroke="black"/>
<path d="M177.626 40.5173L177.626 40.5173L177.629 40.5144C178.185 40.0358 178.901 39.7853 179.818 39.7853C180.734 39.7853 181.463 40.0353 182.043 40.5181C182.578 40.9725 182.879 41.6474 182.879 42.6234V64.4872C182.879 65.4759 182.576 66.163 182.038 66.6277L182.037 66.6281C181.458 67.1295 180.73 67.3875 179.818 67.3875C178.903 67.3875 178.182 67.1282 177.639 66.6358L177.303 67.0063L177.632 66.6303C177.104 66.1674 176.809 65.4805 176.809 64.4872V42.6234C176.809 41.6387 177.105 40.9573 177.626 40.5173ZM177.103 32.8319C176.464 32.2442 176.136 31.4619 176.136 30.4527C176.136 29.4434 176.463 28.6751 177.097 28.1098C177.74 27.5364 178.626 27.2207 179.818 27.2207C181.005 27.2207 181.852 27.5333 182.51 28.1119C183.167 28.6911 183.5 29.4505 183.5 30.4527C183.5 31.458 183.165 32.2426 182.532 32.833C181.889 33.4235 181.006 33.747 179.818 33.747C178.63 33.747 177.746 33.4231 177.103 32.8319Z" fill="#FCFCFC" stroke="black"/>
<path d="M42.9993 26.5501C62.3654 19.9754 83.903 15.9055 97.6196 14.9579C97.1409 16.1272 96.8332 17.4549 97.0579 18.8133C97.2883 20.2064 98.0661 21.5619 99.646 22.7741C74.7358 25.7202 52.9811 30.6287 36.4689 36.3246C28.0641 39.2238 21.0065 42.3307 15.5788 45.4933C10.1639 48.6483 6.31926 51.8881 4.40631 55.0759L4.83504 55.3332L4.4063 55.0759C3.70412 56.2462 3.31915 57.8252 4.08063 59.0899C4.80659 60.2957 6.42796 60.9792 9.11718 60.8703V62.1729C6.31146 63.0179 3.7032 62.5743 2.12666 61.1824C0.521782 59.7655 -0.16593 57.2227 1.32265 53.6056C3.58592 48.1105 9.02122 43.0261 16.43 38.4606C23.8254 33.9034 33.12 29.9041 42.9993 26.5501Z" fill="#EF382A" stroke="black"/>
<path d="M10.1173 32.4144H16.2388V62.8157H10.1173V32.4144Z" fill="#FCFCFC" stroke="black"/>
<path d="M12.5702 44.9376H27.3865V49.5979H12.5702V44.9376Z" fill="#FCFCFC" stroke="black"/>
</svg>
