<svg width="966" height="747" viewBox="0 0 966 747" fill="none" xmlns="http://www.w3.org/2000/svg">
<path d="M437.645 72.5592L437.642 72.5636C436.736 73.8124 434.95 75.1035 432.582 76.3348C430.24 77.5528 427.428 78.6626 424.58 79.5899C421.734 80.5164 418.873 81.2542 416.439 81.7334C413.976 82.2184 412.038 82.4207 410.997 82.3269L410.992 82.3265C410.879 82.317 410.826 82.284 410.788 82.2467C410.737 82.1978 410.659 82.0891 410.593 81.8616C410.457 81.3872 410.435 80.6159 410.581 79.5359C410.87 77.4033 411.755 74.4358 413.023 71.1177C415.52 64.5821 419.412 56.9064 422.772 52.0192C422.886 51.9717 423.046 51.9072 423.248 51.8308C423.705 51.6584 424.375 51.4257 425.218 51.1902C426.906 50.7187 429.272 50.2398 431.987 50.2068L432.327 50.2027C433.2 50.3471 434.211 51.1341 435.239 52.6829C436.354 54.3628 437.328 56.7083 438.013 59.268C438.696 61.823 439.077 64.54 439.038 66.9437C438.998 69.3773 438.53 71.3572 437.645 72.5592Z" fill="#1B2846" stroke="#586179" stroke-width="1.69697"/>
<path d="M406.107 30.4878L406.943 30.4776C408.6 30.5689 409.848 30.9889 410.781 31.6174C411.863 32.347 412.594 33.4075 413.032 34.7437C413.923 37.4648 413.561 41.2347 412.466 45.1592C411.489 48.6619 411.301 52.1658 411.146 55.0491C411.121 55.5256 411.096 55.9851 411.069 56.4248C410.971 58.0058 410.844 59.2897 410.565 60.2548C410.287 61.2137 409.909 61.687 409.43 61.8961L409.427 61.8975C409.155 62.0176 408.703 62.1125 408.048 62.1465C407.406 62.1798 406.627 62.1523 405.738 62.0687C403.962 61.9014 401.809 61.5164 399.551 60.9976C395.029 59.9587 390.179 58.4063 387.209 57.0775L387.206 57.0762C386.021 56.5508 385.199 55.321 384.727 53.4427C384.258 51.5762 384.18 49.2295 384.351 46.7619C384.677 42.0687 385.888 37.1601 386.755 34.7655C386.795 34.7503 386.839 34.734 386.886 34.7165C387.203 34.5989 387.667 34.4302 388.253 34.227C389.424 33.8206 391.078 33.2772 393.006 32.7306C396.876 31.6333 401.791 30.5402 406.107 30.4878Z" fill="#1B2846" stroke="#586179" stroke-width="1.69697"/>
<path d="M395.433 0.975035L395.76 1.03875C395.904 1.06661 396.159 1.16612 396.521 1.394C396.872 1.61489 397.28 1.92945 397.724 2.33613C398.612 3.14912 399.604 4.29666 400.523 5.70761C402.362 8.53385 403.856 12.3438 403.679 16.5489C403.59 18.6825 403.216 20.2235 402.639 21.4072C402.067 22.5818 401.272 23.4546 400.259 24.2193C399.23 24.9968 397.993 25.6518 396.526 26.4018C396.397 26.4679 396.266 26.5347 396.134 26.6023C394.78 27.2925 393.267 28.0644 391.66 29.0596C388.462 31.037 385.298 30.7498 382.795 29.1464C380.257 27.5206 378.359 24.5087 377.892 21.0043L377.891 20.9981C377.774 20.1654 377.659 19.4516 377.556 18.8118C377.419 17.9635 377.303 17.2454 377.231 16.5527C377.111 15.3977 377.134 14.4464 377.425 13.3648C378.019 11.157 379.741 8.32623 383.989 2.37078C384.019 2.36541 384.052 2.35973 384.086 2.35374C384.365 2.30452 384.766 2.2346 385.256 2.15197C386.235 1.98665 387.564 1.77082 388.963 1.5683C390.364 1.36551 391.827 1.17742 393.078 1.06621C394.104 0.974964 394.917 0.943071 395.433 0.975035Z" fill="#1B2846" stroke="#586179" stroke-width="1.69697"/>
<mask id="path-4-inside-1_46_2051" fill="white">
<path d="M161.391 480.332L159.889 479.815L157.983 476.119L156.815 475.231L153.521 475.722L150.74 476.685L149.341 475.322L143.686 471.897L139.741 472.17L133.398 470.162L131.714 470.859C127.1 467.252 123.217 463.382 121.69 463.063C119.654 462.637 118.26 459.385 120.219 455.755C122.206 452.152 124.812 448.373 125.568 447.941C126.352 447.453 130.052 445.548 126.329 445.593C125.145 445.608 123.822 445.821 122.499 446.119C122.929 444.31 123.577 441.964 124.162 441.365C125.193 440.31 128.269 440.385 129.877 440.366C131.484 440.346 131.157 438.942 131.257 437.898C131.357 436.854 128.888 435.616 128.888 435.616L131.426 433.247L128.619 432.013L131.179 431.503C131.179 431.503 131.858 429.297 131.965 428.816C132.072 428.364 130.209 428.274 129.391 428.284C128.573 428.294 126.472 427.164 126.472 427.164L123.254 424.639C123.254 424.639 122.357 425.101 121.407 425.817C120.513 426.532 118.455 422.021 118.455 422.021C118.455 422.021 115.796 423.687 114.893 423.698C113.934 423.71 111.679 421.511 111.679 421.511L109.95 423.167L108.763 420.617L108.623 418.421L107.694 418.545L107.773 415.755L102.898 416.152L102.488 412.578L104.462 412.554L101.882 409.176L100.562 407.333L98.2622 408.403L96.8619 409.237L96.625 408.31L94.054 407.975L94.0797 410.088L90.9501 410.211L90.9066 406.633L89.6657 406.648L89.4063 401.551L93.9261 402.088L96.4003 399.1L94.6632 397.74L94.644 396.162L91.5511 396.989L91.8162 393.266L89.5011 393.097L88.3788 388.941L86.5043 387.893L87.3784 385.544L85.837 384.041L86.8916 382.619L87.0118 380.899L85.2841 380.328L84.0223 378.625L81.5306 380.177L80.0172 380.984L79.7876 378.338L76.8303 378.712L73.792 377.058L73.1764 370.501L70.6184 371.236L71.2695 366.776L69.8422 365.385L69.9519 365.13L71.6445 360.489C71.6445 360.489 69.9351 354.451 70.1436 353.04C70.3807 351.657 73.8125 348.544 73.8125 348.544L72.8878 346.723C75.5541 345.62 76.8469 342.9 78.4545 342.88C80.5416 342.855 83.785 342.816 82.6146 341.675C81.4443 340.534 77.4338 340.131 76.7453 339.182C76.173 338.512 75.2197 336.664 71.191 337.08C75.8021 331.191 87.1613 316.542 88.7874 313.395C90.8266 309.426 81.6738 303.676 81.6738 303.676L84.1701 300.18L82.0546 297.867L81.7609 292.264L79.8994 292.286L79.1745 290.661L80.537 289.038L79.3694 288.123L79.7808 282.51L81.862 282.006C81.862 282.006 76.3027 267.873 76.2938 267.14C76.2849 266.408 79.3113 262.426 79.5256 261.494C79.74 260.562 81.333 257.02 79.4463 254.958C77.5595 252.896 74.0169 251.53 74.0169 251.53L74.6344 244.31C74.6344 244.31 74.5375 243.296 74.6332 241.886L76.6791 240.791L77.7931 237.283L81.2708 235.635L81.2336 232.564L83.1094 233.725L85.1965 233.7L85.0559 231.419C89.004 233.654 94.593 236.291 98.5171 236.553C104.615 236.93 109.28 237.803 116.128 244.257C122.976 250.71 134.218 254.293 134.549 260.601C134.851 266.908 136.247 268.047 131.396 272.755C126.573 277.491 123.778 279.61 113.001 274.838C102.196 270.094 96.0957 267.125 94.6769 266.438C93.2582 265.751 91.8622 264.613 94.9337 268.999C98.0612 273.357 104.126 275.65 104.393 279.112C104.661 282.603 105.249 291.499 106.216 294.503C107.184 297.506 112.625 301.892 115.194 302.086C117.735 302.308 120.809 302.271 120.048 299.942C119.286 297.612 116.503 296.04 114.576 293.02C112.677 289.972 113.794 286.718 118.257 289.482C122.747 292.217 133.975 294.673 131.326 290.253C128.706 285.833 125.871 284.712 128.663 282.34C131.427 279.996 138.326 269.656 143.036 271.909C147.746 274.19 150.546 274.833 150.504 271.368C150.486 269.846 149.87 267.91 149.195 265.748L156.709 264.361C157.026 264.892 157.454 265.282 158.107 265.612C161.852 267.426 159.998 268.04 167.669 258.621C175.368 249.201 186.445 239.148 193.964 242.776C201.483 246.404 202.387 244.196 207.993 243.536C213.597 242.82 219.178 242.47 224.426 240.209C229.702 237.975 226.815 230.262 223.694 228.722C220.544 227.182 223.637 224.045 230.215 226.783C236.792 229.492 245.49 230.317 251.178 236.503C256.866 242.632 261.294 247.228 263.156 247.205C265.017 247.183 270.897 245.871 264.904 237.858C258.855 229.873 254.084 220.266 255.889 215.595C257.694 210.896 262.872 200.577 265.575 190.936C268.279 181.295 269.147 178.467 274.155 179.646C279.162 180.825 287.251 182.586 284.606 194.734C281.96 206.882 286.037 208.1 285.771 214.021C285.532 219.912 283.641 240.786 286.744 240.748C289.846 240.711 295.182 243.435 293.482 233.51C291.838 223.555 289.397 203.721 296.508 199.267C303.619 194.841 313.178 187.569 315.707 189.116C318.179 190.607 324.535 198.335 327.61 198.298C330.684 198.26 332.882 195.726 330.04 191.731C327.199 187.708 320.206 176.297 321.708 172.25C323.238 168.174 349.084 168.79 351.199 164.087C353.314 159.384 343.612 154.853 349.142 147.967C354.672 141.081 361.718 131.331 369.785 131.233C377.851 131.135 380.654 127.382 384.669 125.783C388.711 124.156 395.546 122.524 402.367 122.131C409.245 121.738 409.474 117.367 413.823 115.455C418.144 113.543 419.975 111.013 421.169 104.8C422.334 98.5586 425.963 90.7379 430.908 89.1282C435.881 87.4899 445.273 92.0532 443.438 94.2732C441.603 96.4651 435.43 101.499 438.219 101.155C441.007 100.811 450.672 102.244 451.334 105.673C451.996 109.103 467.841 106.121 470.981 109.154C474.12 112.187 487.357 126.678 479.714 136.097C472.071 145.516 457.278 158.46 459.169 160.888C461.061 163.373 468.189 162.638 475.678 163.815C483.167 164.964 502.761 164.078 506.548 169.329C510.336 174.581 528.162 181.493 528.079 174.675C527.997 167.857 526.079 163.204 540.481 169.227C554.856 175.28 556.47 178.05 554.665 182.749C552.86 187.448 551.051 191.809 553.9 196.452C556.749 201.095 565.008 216.829 567.375 204.995C569.741 193.132 568.135 190.982 574.739 195.889C581.343 200.796 604.059 201.478 605.546 196.163C607.061 190.847 603.484 179.705 616.565 181.406C629.646 183.107 646.182 183.554 650.271 188.153C654.361 192.781 657.529 195.814 661.634 201.709C665.739 207.548 673.551 207.453 678.778 205.84C684.062 204.254 701.161 204.638 701.575 210.86C701.961 217.083 699.568 226.748 709.509 225.388C719.477 223.999 729.095 223.882 732.22 225.704C735.373 227.525 739.66 222.824 741.856 222.487C744.024 222.151 760.106 215.447 772.629 219.944C785.123 224.47 800.831 235.747 809.304 241.251C817.777 246.755 823.081 249.17 823.107 251.339C823.134 253.509 821.979 260.68 824.151 260.653C826.323 260.627 828.024 256.661 828.024 256.661C829.406 256.645 837.453 257.336 837.827 257.923C838.546 259.07 847.064 268.293 847.064 268.293C845.24 271.386 843.386 272.056 843.624 273.04C843.861 273.939 839.467 274.471 838.054 276.573C836.669 278.703 834.272 290.397 832.828 289.964C831.441 289.502 819.256 284.972 818.999 282.411C818.714 279.851 815.411 274.988 811.192 275.969C807.029 276.95 803.661 271.384 804.124 269.997C804.558 268.583 800.579 266.096 800.158 268.637C799.71 271.206 803.024 276.998 799.821 280.306C796.616 283.585 790.562 286.73 788.457 285.318C786.325 283.935 782.34 283.307 784.006 285.823C785.673 288.367 787.995 289.071 790.141 291.609C792.288 294.147 791.611 296.466 793.726 298.779C795.842 301.092 798.513 307.371 796.418 309.03C794.35 310.662 787.762 307.022 784.733 308.468C781.732 309.885 754.848 326.075 754.665 329.571C754.482 333.067 751.73 336.369 747.631 328.726C743.589 321.083 737.239 337.024 733.504 336.139C730.11 335.335 726.873 331.261 722.857 335.085L712.628 331.293C717.142 326.73 722.441 321.706 723.965 317.123C726.007 311.041 729.43 304.941 723.144 307.581C716.914 310.221 719.726 311.849 712.362 320.983C704.998 330.174 705.481 332.732 704.73 329.022C704.008 325.311 706.441 316.603 700.406 316.677C694.37 316.75 682.105 328.789 679.144 333.502C676.183 338.216 683.708 342.323 675.762 343.095C667.846 343.896 665.482 342.065 647.282 341.581C629.054 341.127 622.268 339.8 606.156 360.283C590.072 380.765 584.316 385.258 595.056 386.988C605.824 388.717 614.61 382.806 615.442 393.305C616.275 403.777 610.841 439.514 595.429 454.86C579.96 470.235 578.135 473.272 573.868 470.309C571.99 468.979 568.572 470.937 565.112 473.993L564.538 470.873L563.741 470.319L567.338 469.205L567.916 461.055C567.916 461.055 565.33 457.085 566.221 456.144C567.168 455.203 570.398 451.698 572.758 453.275C575.091 454.881 575.322 455.358 577.361 451.36C579.429 447.39 581.972 443.133 581.248 441.536C580.523 439.91 583.751 436.349 583.751 436.349L583.695 431.672L575.758 433.178C575.758 433.178 574.639 436.206 571.564 436.243C568.49 436.281 563.639 436.34 564.068 434.475C564.525 432.61 563.537 427.944 563.537 427.944L561.667 427.263L558.325 423.837L555.299 423.17L550.411 422.525L549.195 417.665L545.39 410.949C545.39 410.949 545.297 403.23 544.366 403.241C543.435 403.252 542.648 396.499 534.218 394.517C525.788 392.534 522.093 394.889 520.655 394.907C519.216 394.924 514.605 396.136 513.934 398.933C513.262 401.731 516.072 400.767 516.072 400.767L516.568 404.48C516.568 404.48 512.434 407.827 511.951 409.918C511.497 412.008 509.016 416.716 509.478 417.64C509.969 418.564 508.376 422.105 505.592 422.843C503.483 423.404 500.626 422.706 497.965 421.893C497.144 421.65 496.322 421.35 495.529 421.106C492.271 419.962 489.696 421.628 488.526 420.487C487.327 419.346 485.92 417.278 482.694 421.036C479.439 424.795 474.329 426.745 468.491 426.816C462.652 426.887 456.825 425.549 455.866 423.25C454.907 420.923 452.121 421.436 452.121 421.436C452.121 421.436 450.428 416.751 445.758 417.794C441.087 418.752 433.678 421.885 430.587 418.203C427.468 414.522 427.002 411.005 427.002 411.005L422.095 408.755L416.225 408.572L416.46 406.963L412.203 404.902C406.439 411.058 407.652 415.692 408.627 417.061C409.575 418.458 408.256 423.602 406.166 423.402C404.048 423.203 400.517 420.456 397.708 421.42C394.955 422.383 391.218 421.245 389.971 418.499C388.78 415.668 384.347 417.609 384.347 417.609L384.105 416.232L379.914 414.902L365.544 425.558L361.096 426.316C361.096 426.316 360.57 427.055 359.956 427.598L359.927 427.599C359.565 427.941 359.145 428.2 358.806 428.204C358.468 428.208 357.76 427.991 356.966 427.663C355.548 427.032 353.873 426.122 353.868 425.7C353.859 424.995 354.068 423.584 354.068 423.584C354.068 423.584 351.324 427.618 348.709 425.988C346.123 424.385 344.935 421.807 344.935 421.807L341.607 419.537C341.607 419.537 340.88 415.376 337.611 415.641C334.37 415.906 333.228 417.075 333.228 417.075L329.728 416.892L327.855 415.985C327.855 415.985 326.162 411.328 325.471 412.52C324.781 413.712 321.805 417.242 321.805 417.242C321.805 417.242 313.42 400.325 312.734 399.629C312.021 398.961 305.404 392.956 305.404 392.956C305.404 392.956 304.676 391.105 305.598 390.389C306.521 389.702 309.499 386.397 303.951 389.479C298.375 392.562 294.227 394.754 294.227 394.754L290.529 396.884C290.529 396.884 289.342 394.334 290.493 393.869C291.643 393.376 292.783 391.982 292.783 391.982L286.019 392.515L283.422 390.01C283.422 390.01 279.287 393.301 279.036 391.219C278.785 389.109 279.191 385.356 278.48 384.914C277.77 384.472 278.444 381.9 277.513 381.911C276.582 381.922 275.665 383.089 273.122 382.669C270.549 382.221 268.38 380.162 268.38 380.162L266.099 382.754L264.962 384.374L251.647 386.649L251.229 389.415L243.995 390.686L237.765 393.298L234.688 393.11L231.662 392.47L229.84 395.733L232.874 397.076L231.738 398.724L236.448 401.006L230.83 400.595C230.83 400.595 230.159 403.393 230.426 404.545C230.666 405.725 230.192 406.182 228.123 407.644C226.052 409.05 227.229 410.67 227.229 410.67C227.229 410.67 230.029 411.34 231.713 412.954C233.397 414.568 235.033 419.169 232.015 419.205C228.997 419.242 225.903 417.645 225.903 417.645L224.326 420.228C224.326 420.228 219.411 417.273 218.892 416.35C218.401 415.426 215.642 415.91 215.642 415.91L214.483 418.037L211.919 415.955C211.919 415.955 209.365 416.944 208.225 418.339C207.057 419.734 206.395 420.925 206.395 420.925L200.956 416.765L200.296 420.492L197.676 416.072L194.621 413.094L190.898 413.139L189.72 411.294C189.72 411.294 186.668 413.191 185.799 413.68C184.846 414.143 184.821 412.058 184.821 412.058L182.28 411.863L175.793 416.619L175.567 418.933L171.858 420.133C171.858 420.133 173.565 425.973 172.406 425.733C171.247 425.522 167.25 421.626 167.25 421.626L163.996 425.384L164.292 431.213L162.268 436.394L165.065 436.811L164.891 441.04L169.347 440.986L174.055 447.691L170.817 448.181L176.244 451.468L176.161 451.554C172.613 454.386 165.652 459.627 165.677 461.655C165.702 463.684 167.934 466.305 168.116 469.712C168.298 473.091 168.664 477.623 171.486 480.068C171.942 480.429 172.399 480.903 172.8 481.461L169.372 484.828L166.343 483.935L164.224 481.396L161.478 480.528L161.391 480.332Z"/>
</mask>
<path d="M161.391 480.332L159.889 479.815L157.983 476.119L156.815 475.231L153.521 475.722L150.74 476.685L149.341 475.322L143.686 471.897L139.741 472.17L133.398 470.162L131.714 470.859C127.1 467.252 123.217 463.382 121.69 463.063C119.654 462.637 118.26 459.385 120.219 455.755C122.206 452.152 124.812 448.373 125.568 447.941C126.352 447.453 130.052 445.548 126.329 445.593C125.145 445.608 123.822 445.821 122.499 446.119C122.929 444.31 123.577 441.964 124.162 441.365C125.193 440.31 128.269 440.385 129.877 440.366C131.484 440.346 131.157 438.942 131.257 437.898C131.357 436.854 128.888 435.616 128.888 435.616L131.426 433.247L128.619 432.013L131.179 431.503C131.179 431.503 131.858 429.297 131.965 428.816C132.072 428.364 130.209 428.274 129.391 428.284C128.573 428.294 126.472 427.164 126.472 427.164L123.254 424.639C123.254 424.639 122.357 425.101 121.407 425.817C120.513 426.532 118.455 422.021 118.455 422.021C118.455 422.021 115.796 423.687 114.893 423.698C113.934 423.71 111.679 421.511 111.679 421.511L109.95 423.167L108.763 420.617L108.623 418.421L107.694 418.545L107.773 415.755L102.898 416.152L102.488 412.578L104.462 412.554L101.882 409.176L100.562 407.333L98.2622 408.403L96.8619 409.237L96.625 408.31L94.054 407.975L94.0797 410.088L90.9501 410.211L90.9066 406.633L89.6657 406.648L89.4063 401.551L93.9261 402.088L96.4003 399.1L94.6632 397.74L94.644 396.162L91.5511 396.989L91.8162 393.266L89.5011 393.097L88.3788 388.941L86.5043 387.893L87.3784 385.544L85.837 384.041L86.8916 382.619L87.0118 380.899L85.2841 380.328L84.0223 378.625L81.5306 380.177L80.0172 380.984L79.7876 378.338L76.8303 378.712L73.792 377.058L73.1764 370.501L70.6184 371.236L71.2695 366.776L69.8422 365.385L69.9519 365.13L71.6445 360.489C71.6445 360.489 69.9351 354.451 70.1436 353.04C70.3807 351.657 73.8125 348.544 73.8125 348.544L72.8878 346.723C75.5541 345.62 76.8469 342.9 78.4545 342.88C80.5416 342.855 83.785 342.816 82.6146 341.675C81.4443 340.534 77.4338 340.131 76.7453 339.182C76.173 338.512 75.2197 336.664 71.191 337.08C75.8021 331.191 87.1613 316.542 88.7874 313.395C90.8266 309.426 81.6738 303.676 81.6738 303.676L84.1701 300.18L82.0546 297.867L81.7609 292.264L79.8994 292.286L79.1745 290.661L80.537 289.038L79.3694 288.123L79.7808 282.51L81.862 282.006C81.862 282.006 76.3027 267.873 76.2938 267.14C76.2849 266.408 79.3113 262.426 79.5256 261.494C79.74 260.562 81.333 257.02 79.4463 254.958C77.5595 252.896 74.0169 251.53 74.0169 251.53L74.6344 244.31C74.6344 244.31 74.5375 243.296 74.6332 241.886L76.6791 240.791L77.7931 237.283L81.2708 235.635L81.2336 232.564L83.1094 233.725L85.1965 233.7L85.0559 231.419C89.004 233.654 94.593 236.291 98.5171 236.553C104.615 236.93 109.28 237.803 116.128 244.257C122.976 250.71 134.218 254.293 134.549 260.601C134.851 266.908 136.247 268.047 131.396 272.755C126.573 277.491 123.778 279.61 113.001 274.838C102.196 270.094 96.0957 267.125 94.6769 266.438C93.2582 265.751 91.8622 264.613 94.9337 268.999C98.0612 273.357 104.126 275.65 104.393 279.112C104.661 282.603 105.249 291.499 106.216 294.503C107.184 297.506 112.625 301.892 115.194 302.086C117.735 302.308 120.809 302.271 120.048 299.942C119.286 297.612 116.503 296.04 114.576 293.02C112.677 289.972 113.794 286.718 118.257 289.482C122.747 292.217 133.975 294.673 131.326 290.253C128.706 285.833 125.871 284.712 128.663 282.34C131.427 279.996 138.326 269.656 143.036 271.909C147.746 274.19 150.546 274.833 150.504 271.368C150.486 269.846 149.87 267.91 149.195 265.748L156.709 264.361C157.026 264.892 157.454 265.282 158.107 265.612C161.852 267.426 159.998 268.04 167.669 258.621C175.368 249.201 186.445 239.148 193.964 242.776C201.483 246.404 202.387 244.196 207.993 243.536C213.597 242.82 219.178 242.47 224.426 240.209C229.702 237.975 226.815 230.262 223.694 228.722C220.544 227.182 223.637 224.045 230.215 226.783C236.792 229.492 245.49 230.317 251.178 236.503C256.866 242.632 261.294 247.228 263.156 247.205C265.017 247.183 270.897 245.871 264.904 237.858C258.855 229.873 254.084 220.266 255.889 215.595C257.694 210.896 262.872 200.577 265.575 190.936C268.279 181.295 269.147 178.467 274.155 179.646C279.162 180.825 287.251 182.586 284.606 194.734C281.96 206.882 286.037 208.1 285.771 214.021C285.532 219.912 283.641 240.786 286.744 240.748C289.846 240.711 295.182 243.435 293.482 233.51C291.838 223.555 289.397 203.721 296.508 199.267C303.619 194.841 313.178 187.569 315.707 189.116C318.179 190.607 324.535 198.335 327.61 198.298C330.684 198.26 332.882 195.726 330.04 191.731C327.199 187.708 320.206 176.297 321.708 172.25C323.238 168.174 349.084 168.79 351.199 164.087C353.314 159.384 343.612 154.853 349.142 147.967C354.672 141.081 361.718 131.331 369.785 131.233C377.851 131.135 380.654 127.382 384.669 125.783C388.711 124.156 395.546 122.524 402.367 122.131C409.245 121.738 409.474 117.367 413.823 115.455C418.144 113.543 419.975 111.013 421.169 104.8C422.334 98.5586 425.963 90.7379 430.908 89.1282C435.881 87.4899 445.273 92.0532 443.438 94.2732C441.603 96.4651 435.43 101.499 438.219 101.155C441.007 100.811 450.672 102.244 451.334 105.673C451.996 109.103 467.841 106.121 470.981 109.154C474.12 112.187 487.357 126.678 479.714 136.097C472.071 145.516 457.278 158.46 459.169 160.888C461.061 163.373 468.189 162.638 475.678 163.815C483.167 164.964 502.761 164.078 506.548 169.329C510.336 174.581 528.162 181.493 528.079 174.675C527.997 167.857 526.079 163.204 540.481 169.227C554.856 175.28 556.47 178.05 554.665 182.749C552.86 187.448 551.051 191.809 553.9 196.452C556.749 201.095 565.008 216.829 567.375 204.995C569.741 193.132 568.135 190.982 574.739 195.889C581.343 200.796 604.059 201.478 605.546 196.163C607.061 190.847 603.484 179.705 616.565 181.406C629.646 183.107 646.182 183.554 650.271 188.153C654.361 192.781 657.529 195.814 661.634 201.709C665.739 207.548 673.551 207.453 678.778 205.84C684.062 204.254 701.161 204.638 701.575 210.86C701.961 217.083 699.568 226.748 709.509 225.388C719.477 223.999 729.095 223.882 732.22 225.704C735.373 227.525 739.66 222.824 741.856 222.487C744.024 222.151 760.106 215.447 772.629 219.944C785.123 224.47 800.831 235.747 809.304 241.251C817.777 246.755 823.081 249.17 823.107 251.339C823.134 253.509 821.979 260.68 824.151 260.653C826.323 260.627 828.024 256.661 828.024 256.661C829.406 256.645 837.453 257.336 837.827 257.923C838.546 259.07 847.064 268.293 847.064 268.293C845.24 271.386 843.386 272.056 843.624 273.04C843.861 273.939 839.467 274.471 838.054 276.573C836.669 278.703 834.272 290.397 832.828 289.964C831.441 289.502 819.256 284.972 818.999 282.411C818.714 279.851 815.411 274.988 811.192 275.969C807.029 276.95 803.661 271.384 804.124 269.997C804.558 268.583 800.579 266.096 800.158 268.637C799.71 271.206 803.024 276.998 799.821 280.306C796.616 283.585 790.562 286.73 788.457 285.318C786.325 283.935 782.34 283.307 784.006 285.823C785.673 288.367 787.995 289.071 790.141 291.609C792.288 294.147 791.611 296.466 793.726 298.779C795.842 301.092 798.513 307.371 796.418 309.03C794.35 310.662 787.762 307.022 784.733 308.468C781.732 309.885 754.848 326.075 754.665 329.571C754.482 333.067 751.73 336.369 747.631 328.726C743.589 321.083 737.239 337.024 733.504 336.139C730.11 335.335 726.873 331.261 722.857 335.085L712.628 331.293C717.142 326.73 722.441 321.706 723.965 317.123C726.007 311.041 729.43 304.941 723.144 307.581C716.914 310.221 719.726 311.849 712.362 320.983C704.998 330.174 705.481 332.732 704.73 329.022C704.008 325.311 706.441 316.603 700.406 316.677C694.37 316.75 682.105 328.789 679.144 333.502C676.183 338.216 683.708 342.323 675.762 343.095C667.846 343.896 665.482 342.065 647.282 341.581C629.054 341.127 622.268 339.8 606.156 360.283C590.072 380.765 584.316 385.258 595.056 386.988C605.824 388.717 614.61 382.806 615.442 393.305C616.275 403.777 610.841 439.514 595.429 454.86C579.96 470.235 578.135 473.272 573.868 470.309C571.99 468.979 568.572 470.937 565.112 473.993L564.538 470.873L563.741 470.319L567.338 469.205L567.916 461.055C567.916 461.055 565.33 457.085 566.221 456.144C567.168 455.203 570.398 451.698 572.758 453.275C575.091 454.881 575.322 455.358 577.361 451.36C579.429 447.39 581.972 443.133 581.248 441.536C580.523 439.91 583.751 436.349 583.751 436.349L583.695 431.672L575.758 433.178C575.758 433.178 574.639 436.206 571.564 436.243C568.49 436.281 563.639 436.34 564.068 434.475C564.525 432.61 563.537 427.944 563.537 427.944L561.667 427.263L558.325 423.837L555.299 423.17L550.411 422.525L549.195 417.665L545.39 410.949C545.39 410.949 545.297 403.23 544.366 403.241C543.435 403.252 542.648 396.499 534.218 394.517C525.788 392.534 522.093 394.889 520.655 394.907C519.216 394.924 514.605 396.136 513.934 398.933C513.262 401.731 516.072 400.767 516.072 400.767L516.568 404.48C516.568 404.48 512.434 407.827 511.951 409.918C511.497 412.008 509.016 416.716 509.478 417.64C509.969 418.564 508.376 422.105 505.592 422.843C503.483 423.404 500.626 422.706 497.965 421.893C497.144 421.65 496.322 421.35 495.529 421.106C492.271 419.962 489.696 421.628 488.526 420.487C487.327 419.346 485.92 417.278 482.694 421.036C479.439 424.795 474.329 426.745 468.491 426.816C462.652 426.887 456.825 425.549 455.866 423.25C454.907 420.923 452.121 421.436 452.121 421.436C452.121 421.436 450.428 416.751 445.758 417.794C441.087 418.752 433.678 421.885 430.587 418.203C427.468 414.522 427.002 411.005 427.002 411.005L422.095 408.755L416.225 408.572L416.46 406.963L412.203 404.902C406.439 411.058 407.652 415.692 408.627 417.061C409.575 418.458 408.256 423.602 406.166 423.402C404.048 423.203 400.517 420.456 397.708 421.42C394.955 422.383 391.218 421.245 389.971 418.499C388.78 415.668 384.347 417.609 384.347 417.609L384.105 416.232L379.914 414.902L365.544 425.558L361.096 426.316C361.096 426.316 360.57 427.055 359.956 427.598L359.927 427.599C359.565 427.941 359.145 428.2 358.806 428.204C358.468 428.208 357.76 427.991 356.966 427.663C355.548 427.032 353.873 426.122 353.868 425.7C353.859 424.995 354.068 423.584 354.068 423.584C354.068 423.584 351.324 427.618 348.709 425.988C346.123 424.385 344.935 421.807 344.935 421.807L341.607 419.537C341.607 419.537 340.88 415.376 337.611 415.641C334.37 415.906 333.228 417.075 333.228 417.075L329.728 416.892L327.855 415.985C327.855 415.985 326.162 411.328 325.471 412.52C324.781 413.712 321.805 417.242 321.805 417.242C321.805 417.242 313.42 400.325 312.734 399.629C312.021 398.961 305.404 392.956 305.404 392.956C305.404 392.956 304.676 391.105 305.598 390.389C306.521 389.702 309.499 386.397 303.951 389.479C298.375 392.562 294.227 394.754 294.227 394.754L290.529 396.884C290.529 396.884 289.342 394.334 290.493 393.869C291.643 393.376 292.783 391.982 292.783 391.982L286.019 392.515L283.422 390.01C283.422 390.01 279.287 393.301 279.036 391.219C278.785 389.109 279.191 385.356 278.48 384.914C277.77 384.472 278.444 381.9 277.513 381.911C276.582 381.922 275.665 383.089 273.122 382.669C270.549 382.221 268.38 380.162 268.38 380.162L266.099 382.754L264.962 384.374L251.647 386.649L251.229 389.415L243.995 390.686L237.765 393.298L234.688 393.11L231.662 392.47L229.84 395.733L232.874 397.076L231.738 398.724L236.448 401.006L230.83 400.595C230.83 400.595 230.159 403.393 230.426 404.545C230.666 405.725 230.192 406.182 228.123 407.644C226.052 409.05 227.229 410.67 227.229 410.67C227.229 410.67 230.029 411.34 231.713 412.954C233.397 414.568 235.033 419.169 232.015 419.205C228.997 419.242 225.903 417.645 225.903 417.645L224.326 420.228C224.326 420.228 219.411 417.273 218.892 416.35C218.401 415.426 215.642 415.91 215.642 415.91L214.483 418.037L211.919 415.955C211.919 415.955 209.365 416.944 208.225 418.339C207.057 419.734 206.395 420.925 206.395 420.925L200.956 416.765L200.296 420.492L197.676 416.072L194.621 413.094L190.898 413.139L189.72 411.294C189.72 411.294 186.668 413.191 185.799 413.68C184.846 414.143 184.821 412.058 184.821 412.058L182.28 411.863L175.793 416.619L175.567 418.933L171.858 420.133C171.858 420.133 173.565 425.973 172.406 425.733C171.247 425.522 167.25 421.626 167.25 421.626L163.996 425.384L164.292 431.213L162.268 436.394L165.065 436.811L164.891 441.04L169.347 440.986L174.055 447.691L170.817 448.181L176.244 451.468L176.161 451.554C172.613 454.386 165.652 459.627 165.677 461.655C165.702 463.684 167.934 466.305 168.116 469.712C168.298 473.091 168.664 477.623 171.486 480.068C171.942 480.429 172.399 480.903 172.8 481.461L169.372 484.828L166.343 483.935L164.224 481.396L161.478 480.528L161.391 480.332Z" fill="#1B2846" stroke="#586179" stroke-width="3.39394" mask="url(#path-4-inside-1_46_2051)"/>
<path d="M153.716 246.053C153.739 246.047 153.757 246.044 153.77 246.044L153.788 246.055C154.684 246.636 157.292 248.581 159.163 250.628C160.113 251.666 160.784 252.638 161.017 253.409C161.129 253.78 161.119 254.037 161.057 254.215C161 254.379 160.863 254.579 160.506 254.776L160.504 254.778C158.687 255.79 157.179 257.479 156.317 259.265C155.648 260.653 155.315 262.228 155.675 263.628L149.934 264.688C149.2 262.105 148.591 259.277 149.016 256.447L149.017 256.442C149.432 253.563 150.456 250.619 151.589 248.562C152.16 247.525 152.725 246.776 153.206 246.364C153.446 246.158 153.618 246.077 153.716 246.053Z" fill="#1B2846" stroke="#586179" stroke-width="1.69697"/>
<path d="M102.33 454.456C102.337 454.361 102.331 454.269 102.314 454.183L105.544 455.575C105.87 456.761 106.676 458.048 108.204 458.182L108.214 458.183L108.224 458.184C108.714 458.215 109.308 458.225 109.905 458.236L109.937 458.237C110.533 458.247 111.138 458.258 111.695 458.286C112.269 458.316 112.75 458.362 113.091 458.435C113.202 458.458 113.281 458.481 113.335 458.5C113.391 458.619 113.458 458.752 113.52 458.876C113.567 458.971 113.612 459.061 113.649 459.136C113.78 459.409 113.87 459.636 113.908 459.808C113.831 459.817 113.714 459.821 113.542 459.808L113.532 459.808L113.521 459.807C112.174 459.743 110.798 460.124 109.515 460.623C108.539 461.003 107.555 461.478 106.642 461.918C106.358 462.055 106.081 462.188 105.814 462.315C105.328 462.544 104.861 462.81 104.455 463.042C104.344 463.105 104.238 463.165 104.137 463.222C103.628 463.507 103.272 463.68 102.998 463.742C102.779 463.792 102.727 463.75 102.674 463.702C102.552 463.591 102.341 463.273 102.145 462.467C101.695 460.515 100.303 459.031 99.194 458.032C98.8575 457.729 98.4866 457.42 98.1901 457.173C98.1553 457.144 98.1215 457.116 98.089 457.088C98.1028 457.083 98.1168 457.077 98.1309 457.071C98.3346 456.987 98.5761 456.89 98.8327 456.787C99.2206 456.632 99.6429 456.463 100.02 456.302C100.642 456.038 101.316 455.727 101.734 455.409C101.845 455.325 101.969 455.217 102.074 455.085C102.174 454.959 102.309 454.744 102.33 454.456ZM113.419 458.537C113.419 458.537 113.416 458.535 113.411 458.532C113.417 458.535 113.419 458.537 113.419 458.537ZM113.925 459.945C113.925 459.945 113.925 459.942 113.926 459.937C113.926 459.943 113.925 459.945 113.925 459.945ZM97.5044 456.562C97.5001 456.557 97.5011 456.557 97.5053 456.564C97.505 456.563 97.5047 456.563 97.5044 456.562Z" fill="#1B2846" stroke="#586179" stroke-width="1.69697"/>
<path d="M52.039 697.538L51.6352 696.792L51.2161 697.019L51.1916 697.494L52.039 697.538ZM52.039 697.538L51.1916 697.495L51.1916 697.495L51.1916 697.496L51.1913 697.5L51.1904 697.518L51.1866 697.589C51.1833 697.652 51.1782 697.744 51.1716 697.862C51.1583 698.098 51.1386 698.437 51.1128 698.851C51.0612 699.677 50.9855 700.797 50.889 701.971C50.7923 703.147 50.6753 704.37 50.5417 705.405C50.4036 706.475 50.2588 707.246 50.131 707.586L50.1278 707.594L50.1248 707.603C49.8003 708.523 48.5815 712.735 47.4569 716.667C46.8915 718.644 46.3457 720.565 45.9413 721.992C45.7606 722.63 45.6081 723.169 45.4946 723.571L41.6306 722.659L41.2404 722.567L40.9216 722.81L38.3365 724.78L35.2039 723.396L30.5301 705.512L30.3215 704.714L29.5177 704.9L26.428 705.615L22.6977 699.03C22.7288 699.009 22.76 698.988 22.7911 698.968C27.209 696.043 31.8062 692.999 35.5698 690.247C37.5591 688.792 39.3308 687.408 40.728 686.155C41.7701 685.221 42.6476 684.323 43.2458 683.494L57.1639 692.18C57.1613 692.2 57.1585 692.22 57.1556 692.24C57.1062 692.587 57.0217 693.047 56.8825 693.512C56.7413 693.984 56.5559 694.42 56.3238 694.749C56.0946 695.074 55.8606 695.238 55.6227 695.293C54.5486 695.542 53.5548 695.916 52.8359 696.224C52.4746 696.379 52.1784 696.519 51.9709 696.621C51.8671 696.672 51.7853 696.713 51.7284 696.743C51.6999 696.758 51.6777 696.769 51.662 696.778L51.6435 696.787L51.6381 696.79L51.6363 696.791L51.6357 696.792L51.6354 696.792C51.6353 696.792 51.6352 696.792 52.039 697.538Z" fill="#1B2846" stroke="#586179" stroke-width="1.69697"/>
<path d="M58.3406 690.954L84.2701 684.949C84.3689 684.799 84.5036 684.596 84.6683 684.355C85.0355 683.818 85.5543 683.084 86.1597 682.303C86.7638 681.523 87.4618 680.685 88.1877 679.944C88.9052 679.21 89.6887 678.531 90.4669 678.106L90.4721 678.103C90.6447 678.011 90.893 677.795 91.2018 677.4C91.5014 677.018 91.817 676.52 92.1398 675.934C92.7851 674.764 93.4207 673.31 93.9849 671.875C94.5474 670.445 95.0309 669.055 95.3742 668.022C95.5457 667.505 95.6818 667.079 95.7748 666.782C95.8019 666.696 95.8254 666.62 95.8449 666.557C95.859 666.511 95.871 666.472 95.8811 666.439L95.9081 666.351L95.9148 666.328L95.9164 666.323L95.9168 666.322L95.9168 666.322L96.0536 665.865L96.5148 665.744L113.643 661.261L111.038 654.367L110.814 653.772L111.32 653.39L131.056 638.483L131.088 638.459L131.122 638.438L131.567 639.16C131.122 638.438 131.123 638.437 131.123 638.437L131.123 638.437L131.124 638.436L131.128 638.434L131.14 638.427L131.186 638.399C131.226 638.375 131.284 638.34 131.358 638.296C131.506 638.209 131.72 638.085 131.985 637.937C132.515 637.642 133.254 637.249 134.092 636.858C134.927 636.468 135.872 636.074 136.813 635.783C137.742 635.495 138.72 635.291 139.604 635.32C140.638 635.354 141.41 635.848 141.951 636.51C142.472 637.148 142.784 637.943 142.977 638.663C143.173 639.392 143.264 640.107 143.307 640.633C143.329 640.897 143.339 641.118 143.343 641.275C143.345 641.354 143.346 641.416 143.346 641.46L143.346 641.513L143.346 641.528L143.346 641.533L143.346 641.534L143.346 641.535C143.346 641.535 143.346 641.536 142.498 641.525M58.3406 690.954L288.111 482.73M58.3406 690.954L44.0243 682.019C44.1026 681.776 44.1442 681.517 44.1261 681.238C44.1302 680.114 44.3204 678.989 44.5594 677.834C44.6186 677.548 44.6814 677.258 44.7449 676.964C44.9341 676.09 45.1287 675.191 45.2456 674.32C45.4042 673.141 45.4358 671.925 45.1185 670.718C44.7974 669.498 44.1331 668.338 42.9814 667.254C42.8415 667.122 42.7022 666.992 42.5639 666.862C41.6496 666.005 40.7805 665.191 40.0755 664.346C39.2662 663.376 38.7573 662.461 38.646 661.534C38.5388 660.642 38.7848 659.6 39.7779 658.328C40.786 657.036 42.536 655.546 45.3539 653.82L45.3556 653.819C48.0217 652.178 50.354 650.887 52.4004 649.754L52.8145 649.524C54.9481 648.342 56.7892 647.31 58.3314 646.22C59.884 645.124 61.1639 643.95 62.1735 642.464C63.1837 640.976 63.8945 639.219 64.367 636.991L64.3791 636.934L64.3833 636.876L64.3833 636.876L64.3835 636.873L64.3841 636.864L64.3868 636.828L64.3977 636.682C64.4075 636.555 64.4221 636.366 64.4416 636.124C64.4805 635.639 64.5389 634.939 64.6164 634.081C64.7715 632.363 65.0032 630.014 65.3096 627.484C65.6161 624.953 65.9964 622.248 66.4479 619.819C66.9023 617.374 67.4192 615.262 67.9848 613.886L67.9887 613.876C68.5658 612.42 69.0431 611.261 69.4766 610.352C69.9139 609.434 70.2819 608.824 70.6246 608.432C70.9517 608.058 71.2204 607.922 71.4768 607.879C71.7617 607.83 72.158 607.875 72.7729 608.104C73.3475 608.317 73.996 608.696 74.6553 609.081L74.7151 609.116C75.039 609.305 75.3708 609.498 75.6679 609.645C75.9356 609.778 76.2956 609.939 76.6467 609.964C76.837 609.978 77.1224 609.959 77.3908 609.776C77.6774 609.581 77.8052 609.295 77.8505 609.051C77.9267 608.642 77.8052 608.177 77.6617 607.76C77.3495 606.855 76.6439 605.42 75.4387 603.254L75.4373 603.252C74.5339 601.641 73.4863 600.091 72.4769 598.598C72.1 598.04 71.7284 597.491 71.3717 596.948C70.0393 594.924 68.8885 592.972 68.2389 590.925C67.5964 588.899 67.4427 586.773 68.1287 584.386C68.8195 581.982 70.3779 579.259 73.2555 576.082L73.2568 576.08C75.9834 573.056 78.9781 569.843 81.9666 566.637L82.6182 565.938C85.8188 562.504 88.9893 559.094 91.7776 555.962C94.5625 552.835 96.9841 549.966 98.6796 547.615C99.5262 546.442 100.209 545.374 100.665 544.453C101.102 543.572 101.41 542.675 101.307 541.902C101.192 541.03 101.299 540.041 101.447 538.713C101.591 537.415 101.76 535.87 101.702 534.027C101.585 530.317 100.55 525.49 96.7238 518.839M58.3406 690.954L268.827 483.259L268.693 483.746L268.2 483.86L260.927 485.545L260.48 485.648L260.149 485.331L230.99 457.419L218.652 457.631C218.778 457.952 218.925 458.298 219.088 458.681C219.213 458.972 219.346 459.285 219.486 459.624C220.001 460.873 220.546 462.367 220.84 464.169C221.432 467.802 220.977 472.546 217.505 479.033C209.294 494.377 192.862 499.384 178.75 500.562C171.773 501.171 168.993 502.364 167.308 503.759C166.537 504.397 165.97 505.094 165.305 505.911C165.224 506.011 165.141 506.113 165.056 506.217C164.287 507.158 163.394 508.196 162.019 509.261C161.258 509.854 160.199 510.349 158.969 510.78C157.727 511.214 156.255 511.6 154.631 511.952C151.383 512.654 147.457 513.229 143.409 513.758C141.701 513.982 139.973 514.197 138.264 514.41C131.815 515.212 125.624 515.983 121.711 517.044C116.139 518.554 112.105 514.876 109.211 510.637C107.745 508.491 106.506 506.112 105.446 503.988C105.236 503.568 105.035 503.16 104.84 502.767C104.035 501.138 103.353 499.759 102.74 498.802L102.738 498.798C101.144 496.282 97.8607 491.252 94.0581 487.027C92.1552 484.912 90.1516 483.032 88.1928 481.767C86.2192 480.493 84.4095 479.92 82.8434 480.2C82.2162 480.312 81.8331 480.644 81.5947 481.245C81.3317 481.908 81.2518 482.905 81.4021 484.247C81.701 486.916 82.8606 490.557 84.5198 494.636C87.8275 502.768 93.0034 512.368 96.7238 518.839M142.498 641.525L143.252 641.913L143.252 641.914L143.251 641.914L143.25 641.918L143.243 641.93L143.219 641.977L143.126 642.158C143.045 642.314 142.928 642.539 142.784 642.815C142.496 643.368 142.099 644.124 141.665 644.941C140.804 646.563 139.776 648.458 139.162 649.441C139.113 649.519 139.036 649.728 138.987 650.134C138.941 650.519 138.93 651.002 138.949 651.561C138.988 652.679 139.148 654.017 139.349 655.319C139.549 656.618 139.786 657.86 139.974 658.779C140.067 659.238 140.148 659.616 140.206 659.878C140.235 660.009 140.258 660.111 140.273 660.18L140.281 660.212L146.751 675.45L156.072 679.365L156.239 679.435L156.362 679.566L160.827 684.316L165.14 685.083L165.229 685.099L165.314 685.134L200.095 699.431L206.873 693.98L206.978 693.896L207.105 693.848L210.833 692.44L211.007 692.375L211.192 692.388L220.789 693.06L223.799 689.826L224.326 689.26L224.938 689.732L228.889 692.78L230.862 690.128L231.38 689.431L232.064 689.964L237.717 694.367L250.509 691.404L251.14 691.258L251.448 691.828L254.989 698.401L256.465 695.299L256.64 694.931L257.036 694.838L477.444 642.955L476.753 633.214L476.686 632.263L477.639 632.307L487.203 632.749C484.034 628.411 481.964 623.538 480.309 619.642C479.846 618.552 479.415 617.539 479.003 616.636C478.547 615.651 478.143 614.067 477.752 612.09C477.356 610.088 476.958 607.602 476.538 604.767C476.254 602.854 475.96 600.781 475.648 598.583C475.032 594.249 474.348 589.43 473.541 584.394C471.103 569.195 467.574 552.266 461.583 541.355L461.582 541.353C449.547 519.285 427.132 499.612 422.548 495.79C421.505 494.921 419.776 494.035 417.531 493.099C415.342 492.187 412.747 491.26 409.974 490.27L409.832 490.22C404.214 488.213 397.887 485.947 393.095 483.079L393.088 483.075L393.081 483.071L393.072 483.065C392.424 482.661 391.704 482.212 390.907 481.606L373.876 487.767L373.658 487.846L373.431 487.803L345.032 482.468L318.249 486.028L320.04 489.895L320.494 490.877L319.433 491.084L304.298 494.045L303.912 494.121L303.605 493.876L298.425 489.736C298.367 489.713 298.288 489.681 298.191 489.641C297.967 489.549 297.645 489.414 297.249 489.242C296.459 488.899 295.373 488.407 294.194 487.814C291.875 486.647 289.059 485.023 287.486 483.305M142.498 641.525L143.346 641.536L143.343 641.736L143.252 641.913L142.498 641.525ZM287.486 483.305C287.486 483.304 287.485 483.304 287.485 483.303L288.111 482.73M287.486 483.305C287.487 483.306 287.487 483.306 287.488 483.306L288.111 482.73M287.486 483.305C286.038 481.74 283.006 478.552 279.976 476.179C278.453 474.985 276.989 474.045 275.766 473.599C274.52 473.144 273.828 473.293 273.429 473.736M288.111 482.73C285.209 479.594 275.821 469.8 272.795 473.172M273.429 473.736C273.43 473.735 273.43 473.734 273.431 473.733L272.795 473.172M273.429 473.736C272.021 475.333 270.869 477.687 270.058 479.701C269.657 480.698 269.348 481.592 269.14 482.235C269.036 482.556 268.957 482.815 268.904 482.992C268.878 483.08 268.858 483.148 268.845 483.193L268.831 483.244L268.828 483.256L268.827 483.258L268.827 483.258M273.429 473.736C273.428 473.737 273.427 473.738 273.426 473.738L272.795 473.172M272.795 473.172L268.827 483.258M268.827 483.258L268.673 483.216L268.827 483.258ZM96.7238 518.839L95.9882 519.262M96.7238 518.839C96.7238 518.839 96.7237 518.839 96.7237 518.839L95.9882 519.262M95.9882 519.262C88.5365 506.3 75.193 480.706 82.694 479.365C90.195 478.023 100.259 493.298 103.455 498.344C104.096 499.345 104.806 500.781 105.613 502.414C108.801 508.866 113.507 518.389 121.489 516.225C125.466 515.147 131.744 514.366 138.202 513.562L95.9882 519.262Z" fill="#1B2846" stroke="#586179" stroke-width="1.69697"/>
<mask id="path-9-inside-2_46_2051" fill="white">
<path d="M760.864 633.999L732.546 654.681L732.178 661.231L723.204 652.62L707.832 653.135L708.641 639.666L704.669 633.999L700.182 621.045L696.063 621.413L687.09 608.754L649.798 610.815C649.798 610.815 626.702 586.085 608.02 576.296L574.7 586.894L574.038 650.633H567.051C567.051 650.633 555.65 633.557 551.678 632.306C548.736 631.423 539.468 637.017 534.761 640.108C531.966 637.605 532.922 629.068 532.628 627.08C532.26 624.284 522.477 617.365 518.8 616.188C515.195 614.936 510.709 599.554 508.281 596.242C505.854 593.003 506.59 589.397 511.886 590.943C517.108 592.635 514.828 581.227 519.682 580.418C524.537 579.534 529.833 580.05 535.055 576.738C536.894 575.634 540.277 569.01 539.909 564.962C539.542 560.987 534.246 555.246 534.246 555.246C516.005 550.389 502.691 556.792 493.424 564.005L479.375 555.246L487.834 554.069L475.771 536.404H464.149L464.738 525.364L457.456 524.187L462.899 510.718L462.311 495.482L470.916 485.767C470.916 485.767 481.214 496.071 484.229 496.66C487.245 497.323 482.979 482.014 482.979 482.014L492.688 478.996L493.35 472.961L510.414 460.743L517.034 461.332C517.034 461.332 517.034 466.778 519.535 465.601C521.889 464.349 529.833 459.492 529.833 459.492L532.848 464.349H542.557L550.427 472.225L557.121 483.854L558.96 474.138L573.008 485.178C573.008 485.178 574.774 482.087 577.863 478.481C580.879 474.874 587.572 472.372 587.572 472.372L594.192 477.892L597.281 472.372C597.281 472.372 604.489 471.194 605.74 473.623C606.99 476.052 619.788 483.927 619.788 483.927L623.981 477.23C623.981 477.23 631.998 481.498 639.868 481.498C647.739 481.498 643.473 469.281 639.28 465.159C635.087 461.037 627.659 459.05 627.659 459.05C627.659 459.05 624.643 454.781 630.086 451.175C635.529 447.495 636.779 446.317 636.191 443.152C635.529 440.135 637.368 432.848 637.368 432.848L652.005 434.1L639.795 427.991L642.81 423.722L634.94 420.115L639.795 411.651L647.665 413.418L655.682 414.007L672.011 407.382L690.914 404.291L692.091 397.078L726.882 391.558L729.898 387.363L735.929 380.666C735.929 380.666 741.446 386.112 748.213 387.363C754.832 388.541 757.26 385.523 759.687 385.523C762.114 385.523 760.275 392.221 762.114 393.398C763.953 394.576 762.776 404.291 763.365 409.885C763.953 415.331 774.839 406.867 774.839 406.867L781.532 413.491L799.185 412.314C799.185 412.314 796.169 415.92 793.154 417.171C790.138 418.349 793.154 425.047 793.154 425.047L802.863 419.6C802.863 419.6 813.749 414.08 828.386 406.131C843.023 398.256 835.079 406.794 832.652 408.56C830.224 410.4 832.063 415.258 832.063 415.258C832.063 415.258 849.128 431.156 850.967 432.922C852.732 434.762 874.062 479.217 874.062 479.217C874.062 479.217 881.933 470.164 883.771 466.999C885.61 463.981 889.876 476.126 889.876 476.126L894.731 478.554L903.851 479.143C903.851 479.143 906.867 476.126 915.326 475.537C923.932 474.948 925.623 485.841 925.623 485.841L934.229 491.876C934.229 491.876 937.245 498.574 943.938 502.916C950.631 507.185 957.987 496.807 957.987 496.807C957.987 496.807 957.398 500.487 957.398 502.327C957.398 503.505 961.664 505.934 965.416 507.627L957.398 512.116L957.987 519.403L943.35 527.278C943.35 527.278 943.938 529.707 943.35 541.336C942.761 552.965 933.641 552.965 933.641 552.965L912.898 544.942L903.189 571.733L905.617 582.773L895.319 580.933L875.239 586.379L884.36 615.599L876.931 621.708V633.925L865.457 624.799L811.91 623.548L803.892 615.084L792.418 618.101L793.595 631.57L766.233 624.872L763.806 631.791L760.496 634.22L760.864 633.999Z"/>
</mask>
<path d="M760.864 633.999L732.546 654.681L732.178 661.231L723.204 652.62L707.832 653.135L708.641 639.666L704.669 633.999L700.182 621.045L696.063 621.413L687.09 608.754L649.798 610.815C649.798 610.815 626.702 586.085 608.02 576.296L574.7 586.894L574.038 650.633H567.051C567.051 650.633 555.65 633.557 551.678 632.306C548.736 631.423 539.468 637.017 534.761 640.108C531.966 637.605 532.922 629.068 532.628 627.08C532.26 624.284 522.477 617.365 518.8 616.188C515.195 614.936 510.709 599.554 508.281 596.242C505.854 593.003 506.59 589.397 511.886 590.943C517.108 592.635 514.828 581.227 519.682 580.418C524.537 579.534 529.833 580.05 535.055 576.738C536.894 575.634 540.277 569.01 539.909 564.962C539.542 560.987 534.246 555.246 534.246 555.246C516.005 550.389 502.691 556.792 493.424 564.005L479.375 555.246L487.834 554.069L475.771 536.404H464.149L464.738 525.364L457.456 524.187L462.899 510.718L462.311 495.482L470.916 485.767C470.916 485.767 481.214 496.071 484.229 496.66C487.245 497.323 482.979 482.014 482.979 482.014L492.688 478.996L493.35 472.961L510.414 460.743L517.034 461.332C517.034 461.332 517.034 466.778 519.535 465.601C521.889 464.349 529.833 459.492 529.833 459.492L532.848 464.349H542.557L550.427 472.225L557.121 483.854L558.96 474.138L573.008 485.178C573.008 485.178 574.774 482.087 577.863 478.481C580.879 474.874 587.572 472.372 587.572 472.372L594.192 477.892L597.281 472.372C597.281 472.372 604.489 471.194 605.74 473.623C606.99 476.052 619.788 483.927 619.788 483.927L623.981 477.23C623.981 477.23 631.998 481.498 639.868 481.498C647.739 481.498 643.473 469.281 639.28 465.159C635.087 461.037 627.659 459.05 627.659 459.05C627.659 459.05 624.643 454.781 630.086 451.175C635.529 447.495 636.779 446.317 636.191 443.152C635.529 440.135 637.368 432.848 637.368 432.848L652.005 434.1L639.795 427.991L642.81 423.722L634.94 420.115L639.795 411.651L647.665 413.418L655.682 414.007L672.011 407.382L690.914 404.291L692.091 397.078L726.882 391.558L729.898 387.363L735.929 380.666C735.929 380.666 741.446 386.112 748.213 387.363C754.832 388.541 757.26 385.523 759.687 385.523C762.114 385.523 760.275 392.221 762.114 393.398C763.953 394.576 762.776 404.291 763.365 409.885C763.953 415.331 774.839 406.867 774.839 406.867L781.532 413.491L799.185 412.314C799.185 412.314 796.169 415.92 793.154 417.171C790.138 418.349 793.154 425.047 793.154 425.047L802.863 419.6C802.863 419.6 813.749 414.08 828.386 406.131C843.023 398.256 835.079 406.794 832.652 408.56C830.224 410.4 832.063 415.258 832.063 415.258C832.063 415.258 849.128 431.156 850.967 432.922C852.732 434.762 874.062 479.217 874.062 479.217C874.062 479.217 881.933 470.164 883.771 466.999C885.61 463.981 889.876 476.126 889.876 476.126L894.731 478.554L903.851 479.143C903.851 479.143 906.867 476.126 915.326 475.537C923.932 474.948 925.623 485.841 925.623 485.841L934.229 491.876C934.229 491.876 937.245 498.574 943.938 502.916C950.631 507.185 957.987 496.807 957.987 496.807C957.987 496.807 957.398 500.487 957.398 502.327C957.398 503.505 961.664 505.934 965.416 507.627L957.398 512.116L957.987 519.403L943.35 527.278C943.35 527.278 943.938 529.707 943.35 541.336C942.761 552.965 933.641 552.965 933.641 552.965L912.898 544.942L903.189 571.733L905.617 582.773L895.319 580.933L875.239 586.379L884.36 615.599L876.931 621.708V633.925L865.457 624.799L811.91 623.548L803.892 615.084L792.418 618.101L793.595 631.57L766.233 624.872L763.806 631.791L760.496 634.22L760.864 633.999Z" fill="#1B2846" stroke="#586179" stroke-width="3.39394" mask="url(#path-9-inside-2_46_2051)"/>
</svg>
